<?xml version="1.0" encoding="utf-8"?>
<!-- Generator: Adobe Illustrator 22.1.0, SVG Export Plug-In . SVG Version: 6.00 Build 0)  -->
<svg version="1.1" xmlns="http://www.w3.org/2000/svg" xmlns:xlink="http://www.w3.org/1999/xlink" x="0px" y="0px"
	 viewBox="0 42 612 612" style="enable-background:new 0 0 612 792;" xml:space="preserve">
<style type="text/css">
	.Arched_x0020_Green{fill:url(#SVGID_1_);stroke:#FFFFFF;stroke-width:0.25;stroke-miterlimit:1;}
	.st0{fill:#76CFEE;}
	.st1{fill:#FFFFFF;}
	.st2{fill:#0E82C6;}
	.st3{fill:#1D97CE;}
	.st4{fill:#010101;}
</style>
<linearGradient id="SVGID_1_" gradientUnits="userSpaceOnUse" x1="0" y1="792" x2="0.7071" y2="791.2929">
	<stop  offset="0" style="stop-color:#20AC4B"/>
	<stop  offset="0.9831" style="stop-color:#19361A"/>
</linearGradient>
<g id="Layer_2">
	<path class="st0" d="M324.6,190.7c-41.1-25.7-77.9-11.8-106.7,15.4c-28.8,27.2-46.8,46.6-78.3,49.8c-31.6,3.3-72.6,40.5-65.2,87.5
		c6.7,42.9,64.8,50.1,74.9,80.1c10.2,30.3-27.5,87.6,10.6,112.6c31.4,20.6,110,19,124.6-5.4c14.6-24.4,60-75.6,104-58.2
		c44,17.4,142.5,61,153.8-9.9c10.5-65.8-125.2-86.6-79.6-152.1c24.8-35.7,30.3-102.6-37.6-112.1
		C388.9,193.3,368.9,218.4,324.6,190.7z"/>
	
		<ellipse transform="matrix(0.1284 -0.9917 0.9917 0.1284 30.8329 329.8813)" class="st0" cx="203.1" cy="147.4" rx="12.4" ry="12.4"/>
	<path class="st0" d="M417.6,165.8c0,10.4-8.4,18.8-18.8,18.8c-10.4,0-18.8-8.4-18.8-18.8c0-10.4,8.4-18.8,18.8-18.8
		C409.2,147,417.6,155.4,417.6,165.8z"/>
	<path class="st0" d="M195.7,182.9c0,10.4-8.4,18.8-18.8,18.8c-10.4,0-18.8-8.4-18.8-18.8c0-10.4,8.4-18.8,18.8-18.8
		C187.2,164.1,195.7,172.5,195.7,182.9z"/>
	<path class="st0" d="M532.8,344.7c0,10.4-8.4,18.8-18.8,18.8c-10.4,0-18.8-8.4-18.8-18.8c0-10.4,8.4-18.8,18.8-18.8
		C524.4,325.9,532.8,334.3,532.8,344.7z"/>
	<path class="st0" d="M448.7,118.7c0,10.4-8.4,18.8-18.8,18.8c-10.4,0-18.8-8.4-18.8-18.8c0-10.4,8.4-18.8,18.8-18.8
		C440.2,99.9,448.7,108.3,448.7,118.7z"/>
	<path class="st0" d="M220.3,172.8c0,4.9-4,8.8-8.8,8.8s-8.8-4-8.8-8.8c0-4.9,4-8.8,8.8-8.8S220.3,167.9,220.3,172.8z"/>
	<path class="st0" d="M452.9,167.5c0,4.9-4,8.8-8.8,8.8s-8.8-4-8.8-8.8c0-4.9,4-8.8,8.8-8.8S452.9,162.6,452.9,167.5z"/>
	<path class="st0" d="M397.6,135c0,4.9-4,8.8-8.8,8.8c-4.9,0-8.8-4-8.8-8.8c0-4.9,4-8.8,8.8-8.8C393.7,126.2,397.6,130.1,397.6,135z
		"/>
</g>
<g id="Layer_1">
	<polygon class="st1" points="181,314.5 203.4,337.2 203.4,305.5 	"/>
	<path class="st1" d="M266.5,260.3c0,28.3-55.9,57.3-122.4,57.3c-66.5,0-119.4-24.9-119.4-53.3c0-28.3,35.1-58.3,119.4-58.3
		C224.1,206,266.5,231.9,266.5,260.3z"/>
	
		<ellipse transform="matrix(0.1693 -0.9856 0.9856 0.1693 -151.2752 709.7429)" class="st1" cx="345.4" cy="444.6" rx="21.4" ry="21.4"/>
	<path class="st1" d="M186.4,506.9c0,0-4.2,9.3-1.4,16.5c2.7,7.2,2,19.2,1.2,19.1c-0.8-0.1,89.4,18.8,125.6,6.7
		c36.2-12.2,47.4-33.2,52-40.2c4.6-7,13.2-38.1,13.2-38.1s-25.7,27-56.5,38.1c-30.8,11.1-78.9,10.2-103.3,6
		C192.8,510.9,186.4,506.9,186.4,506.9z"/>
	<path class="st2" d="M578.8,471.6c-1.7-2.7-6.3,0.7-7.9,1.6c-1.6,1-13.7,8.4-16.1,9.5c-2.5,1.1-4.2,2.1-7.2,1.1
		c-2-0.7-4.7-4.4-6.4-7c-0.1-0.8-0.3-1.5-0.7-2.2c-5.3-8.6-18.7-29.1-27.6-31.5c-3.1-0.8-6.2-1.7-8.5-0.2c2.8-2.6,2.6-8,1-10.6
		c-1.2-1.9-4.7-8.1-7.8-12.1c0,0-5.2-8.1-6.2-10.8c-1-2.7-3.1-13,5-16.5c8.2-3.4,17.5-3.2,23.6-2c6.1,1.2,7.1,1.4,7.9-0.3
		c0.8-1.7,0.7-7.1-5.8-11.5c-6.5-4.4-19.1-7-29.8-5.1c-10.7,1.8-31.8,7.1-40.8,16.6c-9,9.5-5.9,20.8-3.4,27.7c1.4,4.1,4.6,8.2,7,11
		c-0.3,0.3-0.4,0.6-0.3,0.8c0.7,3.4,11.3,8.5,13.8,15.4c1.9,5.2-0.1,6.6-12.3,13c-12.2,6.4-13.7,4-21.6,2c-7.9-2-13.7-8.9-13.7-8.9
		l-1.8-7.4c-2.3-16.5-9-54-23.8-71.7c-20-24-40.2-31.4-77.9-33.7c-45.8-2.8-109.5,8.6-126.7,27c-17.2,18.4-13.7,51.9-13.5,74.5
		c0.2,22.6-7,58.8-3.7,62.5c3.3,3.8,32.1,10.6,46,12.4c13.9,1.8,42.5,9.2,95.2-4.7c33.5-8.8,50.4-25.3,61.6-37.8
		c0,0,0.1-0.1,0.1-0.1c-0.3,2.1-0.7,4.7-1.3,7.8c-2.4,11.7-17.9,40.4-23.8,45.9c-5.9,5.5-19,15.2-33.6,20
		c-14.6,4.8-34.1,9.8-68.9,6.8c-34.8-3-59.6-9.5-63.5-10.8c-3.9-1.3-7.3-2.3-7.4,0.2c0,2.4,1.3,17.5,10.5,21
		c4.3,1.6,15.7,4.3,29.9,6.9c-10.7,5.7-34.4,18.3-38.2,19.3c-5,1.2-7,2.1-7,2.1l6,0.6c0,0,33.1-5.9,54.2-14.2c4.1-1.6,6.9-3,8.6-4.2
		c10.3,1.3,20.8,2.3,30.3,2.6c31.7,1.1,40.2,4.8,67.1-5.3c4.5-1.7,8.6-3.4,12.3-5c0.4,0.6,0.9,1.2,1.3,1.8
		c10.5,13.7,43.3,26.8,53.8,29.4c10.4,2.6,46.2,0.6,58.9-3c12.7-3.6,15.3-6.8,14.8-8.2c-0.5-1.3-18.5-3.8-42.3-8.1
		c-23.8-4.3-30.6-9-41.1-17c-5.4-4.2-9.1-10.4-11.3-15.4c6.3-4.9,6.1-4.3,20.1-18.6c14.8-15.1,18.6-21.5,26-28.9
		c7.4-7.5,17.9-19.5,29.4-25c11.5-5.5,19.1-9.4,29-3.5c7.5,4.4,13.2,13.8,19,20.5h0c0,0,0,0,0.1,0.1c0.9,1,1.8,1.9,2.7,2.8
		c2.3,2.4,5.6,5.6,7.8,7.2c3.8,2.7,6.7,4,16.8,3.8c10.1-0.1,25.1-8.9,33.2-17C578,479.2,580.5,474.2,578.8,471.6z M345.7,466.2
		c-12,0-21.8-9.8-21.8-21.8c0-12,9.8-21.8,21.8-21.8s21.8,9.8,21.8,21.8C367.5,456.5,357.8,466.2,345.7,466.2z"/>
	<path class="st3" d="M407.9,417.4c0,0-7.1-54.2-49.2-67.5c-33.6-10.6-72.5-9.6-113.2-1.9c-40.6,7.7-58,17.1-62.5,38.9
		c-4.2,20.1-0.3,45.7-0.3,45.7s-3.2-34.6,10.8-50.8c14-16.3,27.8-24.3,60.3-29.3c5.5-0.8,10.7-1.5,15.8-2.1c5.8,1.2,9.3,6,23.4,5.1
		c17.5-1.1,21.7-6.8,30-5.9c13.6,1.3,24.7,3.8,34.7,6.5C380.6,362.2,398.5,383.6,407.9,417.4z"/>
	<path class="st3" d="M519.9,382.2c0,0-9.7-8.1-26.2-6.2c-19.1,2.2-44.3,13-46,27.4c-0.9,7.9,3.5,13.4,3.5,13.4s-3.2-12,1.5-19.3
		c4.6-7.1,25.2-17,38.1-19.6C510,374.1,519.9,382.2,519.9,382.2z"/>
	<path class="st3" d="M364.9,459.1c0,0-4.1,9.8-19.2,10.1c-15.9,0.3-19.7-10.4-19.7-10.4c-0.2,0,3.1,14.4,19.4,13.4
		C363.4,471,364.9,459.1,364.9,459.1z"/>
	<path class="st3" d="M422.8,458.2c-0.8-0.7,10.8,8.7,22.5,6.6c11.3-2,17.9-6.9,22.5-10.3c-2.6,3.9-12.7,12.4-21.8,14.4
		c-9,2-22.6-2.4-22.6-2.4L422.8,458.2z"/>
	<path class="st3" d="M345,408.3c0,0,5.2-2.5,10.6-1.7c6.7,1.1,7.4,4.3,8.3,6.3c0.9,2.2,0,0.9-0.4,0.4c-0.4-0.5-3.5-4.7-7.7-5.3
		C351.6,407.5,346.4,407.6,345,408.3z"/>
	<path class="st3" d="M393.1,562.7c0,0,8.5,10.4,26.8,15c18.1,4.5,52.2,9.5,53.1,10.2c3.6,2.6-19.4,7-33.8,7
		c-14.4,0,14.5-4.9,13.7-7.2c-0.8-2.3-35.2-2.1-53.1-16.9C389.8,562.4,392.5,561.9,393.1,562.7z"/>
	<path class="st4" d="M23.7,261.5c0,36.3,55.4,58.3,122.8,58.3c12,0,23.5-1.7,34.4-3.5l22.4,24.1l1.2-29c33.2-11.7,64-26.9,64-49.9
		c0-36.3-54.6-57.4-121.9-57.4C79.1,204.1,23.7,225.3,23.7,261.5z M26.6,261.6c0-34,55.7-54.3,119.8-54.3s118.3,18.9,118.3,52.9
		c0,22.4-28.8,37.6-62.5,48.4l-0.9,23.6L182,312.3c-11.4,2-22.8,3.8-35.5,3.8C82.4,316.1,26.6,295.6,26.6,261.6z"/>
	<g>
		<path class="st2" d="M69.2,249.4l-3.8,0l-0.6,20.4l3.8,0l-0.2,3.5l-11.2,0.4v-4l3.4,0.1V262l-9.8,0.4l-0.2,7.8l3.4,0.2l-0.1,3.2
			L42.8,274l-0.2-4l3.6,0.2l-0.3-19.7l-2.8,0l-0.1-4.2l11.4,0.5l-0.3,3.4l-3,0.1l-0.2,7.9l9.7-0.2v-8.5l-3.8,0l-0.2-4l12.7,0.5
			L69.2,249.4z"/>
		<path class="st2" d="M77.8,273.2c-5.9,0-9.5-4.8-9.5-10.1c0-8.3,5.2-11.3,8.8-11.3c6.2,0,9.1,5.3,9.1,9.1c0,1.6-0.6,2.6-0.6,2.6
			l-12.7,0.8c0.2,2.6,1.2,5.3,3.8,5.3c5.2,0,8.6-4.4,8.6-4.4l1.8,2.3C86.9,267.5,83.7,273.2,77.8,273.2z M78.3,255.7
			c-2.6,0-4.7,2.5-5.4,5.5l8.2-0.6c0,0,0.3-0.4,0.3-1.4C81.4,257.2,79.9,255.7,78.3,255.7z"/>
		<path class="st2" d="M86.9,274.8l-0.4-4l3.9-0.1l0.1-23.1l-4,0.2v-3.6l8.9-0.6l-0.9,27l4.2-0.1l0.1,3.3L86.9,274.8z"/>
		<path class="st2" d="M97.9,274.8l-0.4-4l3.9-0.1l0.1-23.1l-4,0.2v-3.6l8.9-0.6l-0.9,27l4.2-0.1l0.1,3.3L97.9,274.8z"/>
		<path class="st2" d="M118.7,272.4c-5.8,0-9.5-4.6-9.5-8.5c0-6.6,4.5-11.2,9.7-11.2c3.9,0,9.4,3.5,9.4,9.7
			C128.2,267.8,124.1,272.4,118.7,272.4z M119.2,257.4c-3.2,0-5.8,2.8-5.8,6.1c0,2.6,1.5,5,5.1,5c2,0,5.3-1.4,5.3-6.1
			C123.7,259.4,121.8,257.4,119.2,257.4z"/>
		<path class="st2" d="M174.3,249.4l-2.9,0.1l-5.9,24.2l-4,0.2l-4.1-15.1l-4.2,14.6h-4.3l-5-23.7l-3.3,0.1l0-4.4l11.3,0.5l-0.3,3.5
			l-2.6,0.1l2.6,16.3c0,0,5.7-18.4,5.9-19c0.2,0.6,5.9,18.7,5.9,18.7l2.9-15.8l-2.8,0l0-4.4l11.3,0.5L174.3,249.4z"/>
		<path class="st2" d="M181.2,272.4c-5.8,0-9.5-4.6-9.5-8.5c0-6.6,4.5-11.2,9.7-11.2c3.9,0,9.4,3.5,9.4,9.7
			C190.7,267.8,186.6,272.4,181.2,272.4z M181.7,257.4c-3.2,0-5.8,2.8-5.8,6.1c0,2.6,1.5,5,5.1,5c2,0,5.3-1.4,5.3-6.1
			C186.2,259.4,184.3,257.4,181.7,257.4z"/>
		<path class="st2" d="M207.3,262.6c-1.7,0-2.6-1.6-2.6-3.8c0-1.3,0.2-2.2,0.4-2.8c-2.9,0.6-5.7,4.1-5.7,6.7l0.1,7.4l3.9-0.2l0,3.4
			l-11.8,1.1l-0.2-3.8l3.8-0.2v-13.7l-4.7,0.1l0.2-3.9l8.6-0.4l0,4.6c0.7-1.9,2.4-4.7,6.2-4.7c3.4,0,4.2,3.9,4.2,5.6
			C209.7,259.6,209,262.6,207.3,262.6z"/>
		<path class="st2" d="M209.7,274.8l-0.4-4l3.9-0.1l0.1-23.1l-4,0.2v-3.6l8.9-0.6l-0.9,27l4.2-0.1l0.1,3.3L209.7,274.8z"/>
		<path class="st2" d="M246.4,274.6l-10.5,0.9l0-3.9c-1.5,1.8-3.5,3-5.8,3c-5.5,0-8.5-4.7-8.5-9c0-7.2,4.8-9.9,8.9-9.9
			c2.4,0,4.2,0.9,5.5,2.4l0.1-10.3l-5.3-0.4v-3.2l10.2-0.4l-1.4,27.6l6.9,0.2L246.4,274.6z M231.5,259.6c-2.3,0-5.3,1.9-5.3,5.9
			c0,2.9,1.9,4.9,4.5,4.9c2.8,0,5.1-2.3,5.1-6.1C235.8,262.2,234.3,259.6,231.5,259.6z"/>
	</g>
	<path class="st4" d="M345.7,421.1c-12.8,0-23.2,10.4-23.2,23.2c0,12.8,10.4,23.2,23.2,23.2c12.8,0,23.2-10.4,23.2-23.2
		C368.9,431.5,358.5,421.1,345.7,421.1z M345.3,465.4c-11.6,0-21-9.4-21-21c0-11.6,9.4-21,21-21c11.6,0,21,9.4,21,21
		C366.3,456,356.9,465.4,345.3,465.4z"/>
	<path class="st4" d="M355.8,446.8c0,4.5-3.7,8.1-8.3,8.1s-8.3-3.6-8.3-8.1c0-4.5,3.7-8.1,8.3-8.1S355.8,442.4,355.8,446.8z"/>
	<path class="st1" d="M347.4,443.6c0-1.1,1-2,2.3-2c1.3,0,2.3,0.9,2.3,2c0,1.1-1,2-2.3,2C348.4,445.7,347.4,444.7,347.4,443.6z"/>
	<path class="st4" d="M346.4,407.2c0.1-0.3,11.6-3.7,15.9,2c4.3,5.8,4.9,13.1,10.3,12.7c-5.3-2.5-3.7-7.8-8.1-14
		C360.1,401.8,352,402.7,346.4,407.2"/>
	<path class="st4" d="M579.9,471.2c-2.7-4.6-12,2.6-25.6,10.4c-8.2,4.7-10.3-1.5-14.9-10.7c-4.7-9.4-8.8-17-21.8-26.7
		c-7.7-5.7-13.4-1.3-13.4-1.3c7.2-2.2,15.1,5.1,22.5,12.8c10.5,10.9,12.3,26,20.3,28.9c8,2.9,30.3-18.1,31.3-12.5
		c1.8,10-22.6,24.9-22.6,24.9s-17.2,8.8-29.5,5.2c-12.3-3.6-20-16.9-28.9-28.3c-8.9-11.4-25.2-14.9-50.4,8
		c-25.2,22.9-59,69.3-94.9,83.3c-33,12.9-71.9,10.4-78.1,9.9l0-0.1c-23.3-0.5-66.5-7.3-79.6-10.4c-13.1-3.2-13.3-13.8-14.3-18.2
		c-1-4.4,0.7-4.9,6.6-2.2c5.8,2.7,94.2,22.6,139.8,1.2c45.6-21.4,52.4-76.1,52.4-76.1c-27.3,25.5-55.4,42.6-103,46.4
		c-47.6,3.8-100.5-11.9-101.7-15.1c-1.2-3.2,2-31.9,4.9-44.7c2.9-12.8-0.1-7.8,0.2-44.1c0.3-36.3-0.1-60.9,101.6-70.4
		c82.2-7.6,105,21.2,115.2,34.8c17.3,23.1,26,88.1,26,88.7c0,0.6,1.8,5.6,5.6,6.3c0,0-3-3.9-3.6-6.9c0,0-0.3-3.1-1-8.2
		c4,4.1,16.8,11.2,30.4,5.1c15-6.7,19.9-11.8,20.7-19.1c-0.9,1.9-1.6,4.2-3.9,6.8c0.2-1.3,0.1-3.3-1.2-6.1
		c-2.5-5.5-20.2-14-22.8-34.6c-2.6-20.5,25.7-30.6,46-33.5c20.2-2.9,29.4,5.5,33,9.4c2.6,2.8,2.4,4.8,2.4,4.8s0,3-6.1,1
		c-6.1-2-25.7-3.7-30.7,8c-5.1,11.7,4.5,19.6,8,24.9c3.5,5.3,9.3,11.8,5.5,20c0,0,6-5.3,0-14.4c-6-9-16.9-20.7-12.5-29.6
		c4.4-8.9,24.1-9.6,29.3-7.7c5.2,1.9,7.7,0.5,8.4-1.3c0,0,0-3.7-2.7-7c-6.3-7.7-15.9-12.6-35-9.8c-17.3,2.5-49.7,11.8-47.3,35.3
		c2.3,23.5,20.4,31.6,22.8,36c2.5,4.4-1.4,8.4-1.4,8.4h0c-2.9,2.1-7,4.3-12.9,6.6c-15,5.9-27.2-4.8-30.6-8.3
		c-2.9-19.5-10-56.1-24.6-77.3c-19.6-28.4-55-40.7-116.4-35.6c-67.4,5.6-109.2,13.8-105.6,76.2c1.2,20.4-0.2,39.1-0.2,39.1
		s-8.9,44.2-4,50.4c5,6.1,56.9,19.8,103.6,15.2c45-4.5,76.2-16.5,100.3-44.3c-10.2,49.2-43.8,69.7-76.9,75.7
		c-33.4,6.1-103.9-7-111.4-10.2c-7.5-3.2-12.6-2.2-10.9,5.8c1.7,8,2.9,16.5,18,21.1c5,1.5,12.2,3.1,20.6,4.5
		c-7.6,4.4-29.8,16.6-45.4,20c-3,0.8,0,3.2,4.5,2.5c5.6-0.9,50.2-7.4,67.6-18.7c10.6,1.2,21.9,2.2,33,2.9c6.4,0.4,29.9,4.2,71.4-6.9
		c2.2-0.6,4.4-1.3,6.5-2c11.9,15.8,46.2,30.4,77.3,30.5c27.7,0.1,57.9-9,52.5-13.8c-5.4-4.8-36-6.4-61.7-13.3
		c-21.1-5.6-29.5-21.1-31.5-26.9c13.4-12.4,26.2-27.9,37-40c21.2-23.8,51.9-50.6,68.3-31.4c15.9,18.7,27.3,40.5,60.1,25.5
		c0.6-0.2,1.4-0.6,2.4-1.2C565.1,494.5,583.9,478,579.9,471.2z M179,591.4c9.7-3.8,33.1-15.5,39.7-18.9c5.3,0.8,10.9,1.6,16.9,2.4
		C229.1,578.3,212.1,586,179,591.4z M416.9,574.9c19.9,6.9,58.8,11.1,60.8,12.6c2.1,1.5-8.1,8.5-47.8,9.3
		c-38.8,0.8-67.1-20.6-74.3-28.5c11.1-4.6,21-11.4,30.2-19.4C388.2,555.8,398.9,568.7,416.9,574.9z"/>
	<path class="st4" d="M320.5,439.3c-0.1-1.9-1.7-1.4-1.6,0c0.9,11.1,3.6,15.5,10,21.2c5.7,5-0.1-2-0.1-2S321.1,451.4,320.5,439.3z"
		/>
	<path class="st4" d="M309,348.2c0.1,2.2-7.4,4.1-16.7,4.3c-9.3,0.2-16.9-1.3-16.9-3.4c-0.1-2.2,7.4-4.1,16.7-4.3
		C301.3,344.5,308.9,346,309,348.2z"/>
	<path class="st4" d="M186.1,508.9c0,0-2.1,4.6-1.9,9.9c0.2,5.3,1.6,6,3.1,9c0.6,1.6,0.8,14.7,0.8,14.7s-1.7,0.2-3.3-1.1
		c-0.2-4.8,1.4-11.2-1.5-14.9c-2.3-3-1.3-15.5-1-18.1c0-0.3,0.5-1.4,0.5-1.4C183,506.6,186.1,508.9,186.1,508.9z"/>
	<path class="st4" d="M366,492.9c-1.4,2.3-5,1.5-5,1.5s2.4,3.2,1,4.7c-1.4,1.5-9.6,6.4-11.1,7.8c-1.5,1.5-4.2-2.1-4.2-2.1
		s2,3.9,0.2,5.4c-1,0.9-10.4,7.2-12.8,8.3c-2.4,1.1-4-2.6-4-2.6s0.3,3.8-0.9,4.7c-1,0.8-7.7,4.1-9.8,5.1l0,0c0,0-2.7,1.4-3.7,1.6
		c-1,0.3-2.7-1.9-2.7-1.9s0,1.5-1.1,2.7c-1.1,1.2-12.6,2.7-14.2,3c-1.6,0.3-2.4-1.8-2.4-1.8s0,1.2-1.3,2.3c-0.5,0.4-1,0.7-2,0.9
		c-3.1,0.9-9.1,1.4-11.7,1.6c-0.9,0-1.9,0-2.5-0.2c-1.4-0.4-2.3-3.6-2.3-3.6s-0.1,2.1-2,3.1c-2.5,1.4-13.9,0.2-16.3,0.2
		c-2.4,0-3-4.6-3-4.6s-0.7,2.9-2.9,4.3c-2.4,1.5-17.3,0-19.8-1.1c-2.6-1.1-1.9-5.2-1.9-5.2s-0.8,2.9-2.4,3.9
		c-2.7,1.9-17.2-1.3-19.4-2.4c-2.1-1.1-1.2-4.8-1.2-4.8s-1.7,2.9-3.2,3.5c-3.6,1.4-21.2-4.5-21.2-4.5s0.8,1.9,1.4,1.9
		c0.6,0,16.7,4.1,18.8,4.7c2.1,0.6,2.1,5.6,2.1,5.6s0.8-3.9,3-4.1c1.2-0.1,13.3,1.8,17.6,2.4c3.8,0.5,3.5,4.6,3.5,4.6
		s0.2-2.6,2.4-3.3c2.3-0.7,16.3,1.3,19.3,1.6c3,0.3,3.2,3.9,3.2,3.9s0.9-2.8,2.6-3.8c1.7-1,12.4,0,15.3,0c2.9,0,3.9,3.1,3.9,3.1
		s1-2.1,2-2.9c0.3-0.3,2.6-0.6,4-0.9c0.8-0.1,11.1-1.2,12.5-1.5c1.4-0.3,3.5,3,3.5,3s0-3.5,0.5-3.8c0.5-0.3,13.2-2.7,14.3-3.1
		c1.1-0.3,3.2,2.3,3.2,2.3s0.1-3.2,0.9-3.7c0.9-0.6,12.3-4.8,14-5.9c1.6-1.1,4.4,2.4,4.4,2.4s-1.3-4.1,0.2-5.3
		c1-0.8,11.1-6.4,13.4-8.3c1.8-1.4,4.1,1.8,4.1,1.8s-0.6-3.4-0.3-4.5c0.2-1.1,9.5-7.4,11.1-9.1c1.7-1.7,2.6-1.2,4.1-0.7
		C366.5,498.3,365.5,495,366,492.9z"/>
	<polygon class="st4" points="202.5,545.3 204.1,538.5 205.1,544.5 	"/>
	<polygon class="st4" points="226.3,549.2 228.6,542.7 228.9,548.7 	"/>
	<polygon class="st4" points="274.3,553.7 275.3,546.8 276.8,552.6 	"/>
	<polygon class="st4" points="298.8,551.5 298.6,544.5 301,550 	"/>
	<polygon class="st4" points="317.2,546.2 317,539.2 319.4,544.7 	"/>
	<polygon class="st4" points="337.7,536.7 336.4,529.8 339.7,534.9 	"/>
	<polygon class="st4" points="354.9,521.6 353.6,514.7 356.9,519.8 	"/>
	<polygon class="st4" points="252,552.2 253.6,545.5 254.5,551.4 	"/>
	<polygon class="st4" points="253.1,519.1 254.6,525.4 256.2,519.4 	"/>
	<polygon class="st4" points="273.9,518.1 275.5,523.4 277.1,518.1 	"/>
	<polygon class="st4" points="293.5,515 295.1,520.4 296.7,515 	"/>
	<polygon class="st4" points="310.2,512.3 313,517.1 313.3,511.5 	"/>
	<polygon class="st4" points="325.7,507 328.5,511.8 328.8,506.2 	"/>
	<polygon class="st4" points="341.6,497.9 345.2,502.1 344.5,496.6 	"/>
	<path class="st4" d="M229.1,517.2c-0.3,0.4,0.7,4.6,0.7,4.6l2.6-3.7L229.1,517.2z"/>
	<polygon class="st4" points="207.2,514 207.2,519.1 210.5,514.7 	"/>
	<path class="st4" d="M364.1,493.9c0,0,8-12.3,10.2-16.7c2.1-4.4,2.1-3.8,2.1-3.8l-0.4,4c0,0-9.8,18.9-10.6,19.3
		c-0.8,0.4-1.6-2.2-1.6-2.2"/>
</g>
</svg>
