<svg version="1.1" id="Layer_1" xmlns="http://www.w3.org/2000/svg" xmlns:xlink="http://www.w3.org/1999/xlink" x="0px" y="0px"
	 width="100%" viewBox="0 0 1108 791" enable-background="new 0 0 1108 791" xml:space="preserve">
<path fill="#FFFFFF" opacity="1.000000" stroke="none" 
	d="
M664.000000,792.000000 
	C444.195526,792.000000 224.891037,791.990417 5.586594,792.083313 
	C1.999902,792.084839 0.892028,791.533569 0.893807,787.587708 
	C1.011270,526.955383 1.013278,266.322998 0.881677,5.690672 
	C0.879567,1.511459 1.877177,0.896568 5.808168,0.897749 
	C371.926605,1.007724 738.045105,1.007307 1104.163574,0.901821 
	C1108.035889,0.900706 1109.124023,1.422751 1109.121826,5.662446 
	C1108.986084,266.294769 1108.989258,526.927124 1109.102539,787.559448 
	C1109.104248,791.444519 1108.084106,792.090332 1104.441528,792.087769 
	C957.794434,791.984924 811.147217,792.000000 664.000000,792.000000 
z"/>
<path fill="#76CFEE" opacity="1.000000" stroke="none" 
	d="
M320.144714,686.086914 
	C294.009705,678.954468 273.180298,662.391174 269.784180,633.270569 
	C267.545929,614.078430 271.175629,595.573181 274.409912,576.907288 
	C277.380920,559.760803 281.547241,542.815674 282.143616,525.263306 
	C282.820038,505.352966 274.780609,489.988434 259.758942,477.483521 
	C245.487869,465.603546 229.409424,456.428833 214.115845,446.081543 
	C201.918991,437.829437 190.520370,428.649017 181.183807,417.219208 
	C164.631760,396.956238 161.671371,373.411591 165.455612,348.460205 
	C166.248230,343.234070 167.785950,338.120911 169.012756,332.568726 
	C170.679321,331.154877 172.297913,331.898132 173.858246,332.326965 
	C194.633011,338.036743 215.818695,341.613464 237.238159,343.377472 
	C264.485748,345.621521 291.787170,345.970703 318.809448,340.849518 
	C325.505432,339.580536 329.816376,341.065308 334.330505,346.386719 
	C342.473511,355.986053 351.280334,365.058014 360.500275,374.622955 
	C360.453491,364.983246 361.892578,355.981628 361.734070,346.837067 
	C361.489899,332.748322 362.168579,332.423706 375.298462,327.601410 
	C395.030792,320.354156 414.136017,311.756592 431.674469,299.971252 
	C437.953735,295.751740 443.437714,290.665192 448.379089,285.022827 
	C461.617615,269.906342 463.377136,250.542664 453.438843,232.540573 
	C446.817688,220.547165 437.014465,211.712708 425.743073,204.307495 
	C411.818542,195.159134 396.442322,189.318085 380.595093,184.560089 
	C378.691132,183.988419 376.671295,183.710632 374.853943,182.028625 
	C390.098633,166.723984 406.245819,152.645416 425.577118,142.694351 
	C445.388336,132.496231 466.321655,127.325691 488.628967,129.138916 
	C509.082214,130.801407 527.705811,138.074783 545.105042,148.772217 
	C556.905273,156.027237 569.186646,162.269775 582.631897,165.999771 
	C600.674744,171.005264 618.711548,170.104446 636.888550,166.662262 
	C653.341736,163.546509 669.735657,159.263687 686.656067,160.173813 
	C711.716431,161.521744 735.358459,167.503250 754.911865,184.377213 
	C771.646606,198.818893 779.897095,217.715973 781.950928,239.380386 
	C785.149902,273.124451 774.854187,303.340881 757.010315,331.425781 
	C751.640625,339.877350 746.300537,348.355865 744.085083,358.252075 
	C740.398071,374.721771 743.712463,389.868683 753.113037,403.852936 
	C760.053101,414.177124 768.929932,422.682922 778.123474,431.445587 
	C776.909241,434.125305 774.284973,434.497650 771.951782,435.201416 
	C764.065430,437.580322 756.799255,441.244202 749.828735,445.546722 
	C745.698181,448.096283 742.015198,451.155579 738.769592,454.819183 
	C728.229980,466.716095 728.534912,480.292938 732.703613,494.321991 
	C737.062500,508.991058 747.028870,519.640320 758.592834,529.019409 
	C759.369202,529.649109 760.177002,530.243286 760.906860,530.926941 
	C768.205627,537.764099 767.473083,545.906921 758.931702,551.210571 
	C752.682007,555.091309 745.949463,558.080750 739.008972,560.435242 
	C726.198853,564.781067 714.819580,560.469910 703.811462,554.121948 
	C697.327026,550.382629 693.880737,545.313782 692.708557,537.566589 
	C688.638000,510.662750 682.343994,484.245331 672.362366,458.845459 
	C666.854187,444.828918 659.752991,431.655273 650.170410,419.426086 
	C649.008118,413.677979 649.662781,408.270111 649.528687,402.432678 
	C649.437500,395.571228 649.403503,389.164337 649.574829,382.311462 
	C649.597717,380.989380 649.622070,380.113617 649.609619,378.812622 
	C649.608582,377.553619 649.655273,376.720184 649.627991,375.479706 
	C649.620178,373.478638 649.697266,371.884399 649.668945,369.895203 
	C649.671509,368.978180 649.677734,368.454895 649.681396,367.540222 
	C649.676331,366.365448 649.711548,365.582397 649.681519,364.401306 
	C649.658203,363.735657 649.650513,363.467651 649.634155,362.794250 
	C649.619690,361.286407 649.618591,360.183929 649.615601,358.651489 
	C649.635925,351.998230 649.407288,345.790253 648.533691,339.162994 
	C648.379761,332.460022 648.439148,326.213928 648.511597,319.497375 
	C648.384644,313.032593 648.418823,307.037903 648.511597,300.572327 
	C648.343445,294.474823 648.518860,288.846130 648.451294,282.759033 
	C648.717163,278.121704 648.134094,273.917419 648.994019,269.359833 
	C651.908813,266.065796 652.553101,269.518829 653.292847,270.692993 
	C660.107300,281.509796 663.271912,293.243011 660.404114,305.932709 
	C657.023315,320.891968 659.058105,335.307800 663.786499,349.558929 
	C665.498108,354.717468 665.681763,354.787109 669.856079,351.215363 
	C675.315308,346.544098 681.532532,343.751160 688.757996,343.416443 
	C688.538574,340.728058 686.806763,339.501831 685.642639,337.957550 
	C678.885498,328.993835 673.231506,319.449585 670.073730,308.585571 
	C669.565613,306.837280 668.982910,305.079865 669.292603,302.850616 
	C672.442627,299.924866 673.028931,302.933746 673.879089,304.642334 
	C676.423340,309.755280 676.354187,309.789703 681.485718,307.924591 
	C687.377136,305.783325 687.475464,305.724823 684.121887,300.091675 
	C677.560791,289.070587 669.891785,278.970551 659.074829,271.178406 
	C655.388306,268.971863 652.622742,266.092682 648.971680,263.830109 
	C643.452209,260.381744 640.893982,260.610443 637.133850,265.291290 
	C634.838501,268.148712 632.152588,270.663940 629.855469,273.956940 
	C626.024719,278.325073 622.491699,282.498505 618.806091,286.988892 
	C615.243164,291.531219 611.455566,295.441071 607.944336,300.028076 
	C606.834351,301.319641 605.811279,302.222595 604.662720,303.477753 
	C601.404663,306.782532 598.883362,310.267365 595.911499,313.814636 
	C595.457092,314.470154 595.175537,314.828217 594.655396,315.431946 
	C590.931824,319.785278 587.185669,323.672180 583.761902,328.280396 
	C579.522278,332.888641 575.953430,337.617859 571.852173,342.344666 
	C567.624023,346.964539 564.136292,351.765930 559.877441,356.362549 
	C555.756714,361.219940 552.091187,366.013153 547.665894,370.644592 
	C546.352478,372.054199 545.415710,373.344971 543.462708,374.009766 
	C535.261780,373.495514 527.445374,373.535248 519.628113,373.393372 
	C497.424316,372.990540 475.439514,375.730072 453.414398,377.801941 
	C432.675507,379.752869 412.047852,382.540405 391.882538,388.022400 
	C378.300720,391.714600 365.266113,396.696808 353.592529,404.727478 
	C333.142426,418.795837 324.229248,439.146393 321.364777,463.077393 
	C319.149963,481.580902 321.818756,499.984528 321.632629,518.444580 
	C321.453857,536.169861 320.247681,553.673279 316.982422,571.087463 
	C314.280212,585.498596 312.396362,600.030212 312.451019,614.740967 
	C312.488556,624.838745 314.123688,627.180054 323.420044,630.760437 
	C330.075256,633.323547 330.370514,633.749878 330.437988,640.981079 
	C330.512177,648.932312 329.922150,656.832092 333.714844,664.445007 
	C335.597687,668.224365 334.560852,672.978821 334.201294,677.295959 
	C334.003601,679.669922 332.578400,681.021851 330.162537,680.626587 
	C325.525543,679.867798 322.472443,681.790771 320.144714,686.086914 
z"/>
<path fill="#090C0E" opacity="1.000000" stroke="none" 
	d="
M319.875854,686.712646 
	C321.383087,679.767822 323.428192,678.162354 329.958954,679.521851 
	C332.884491,680.130859 333.356079,679.282715 333.530792,676.793091 
	C333.942963,670.920349 333.775970,665.368958 330.735687,659.892151 
	C327.450531,653.974304 328.669434,647.136597 329.137939,640.748352 
	C329.499756,635.814392 328.292480,633.608948 323.408234,631.894958 
	C312.302582,627.997375 310.725494,625.092529 311.039795,613.325867 
	C311.543732,594.460022 314.536438,575.892334 318.010101,557.399841 
	C320.987793,541.547546 320.126282,525.535828 320.232727,509.573517 
	C320.343658,492.938019 318.381378,476.295135 320.545105,459.665131 
	C324.815369,426.844604 342.820984,404.981079 373.365204,392.893768 
	C394.140900,384.672211 415.907288,380.818726 437.904968,378.277954 
	C467.016205,374.915558 496.170624,371.720551 525.555725,372.159943 
	C531.379822,372.247040 537.198364,372.709442 543.439148,373.050293 
	C544.127991,376.525970 542.122925,378.324371 538.873657,379.544067 
	C514.157227,377.062988 490.037933,379.788300 465.886414,382.166107 
	C441.838257,384.533722 418.048981,388.280975 394.670227,394.454590 
	C379.278778,398.518951 364.688629,404.329254 351.495209,413.488495 
	C338.188416,422.726379 331.326599,435.774841 328.520569,451.231567 
	C326.946533,459.902039 326.259949,468.692841 326.318024,477.545685 
	C326.447906,497.351349 325.898956,517.172729 328.248627,536.907471 
	C328.605560,539.905334 328.157074,542.884583 327.531281,545.839355 
	C323.938904,562.801697 321.510651,579.953735 319.626923,597.171936 
	C319.049988,602.445801 318.677704,607.777405 318.410950,613.088928 
	C318.042755,620.421814 318.928986,621.655884 325.870239,624.017090 
	C343.894409,630.148438 362.367218,634.477234 381.128906,637.653198 
	C408.131195,642.224182 435.342773,644.949585 462.684662,643.507446 
	C514.436462,640.777710 562.383301,626.738770 603.362366,593.398193 
	C609.822266,588.142456 616.550659,583.217834 622.406982,577.254211 
	C622.990356,576.660156 623.622009,576.102966 624.322937,575.654236 
	C625.691162,574.778320 627.126648,573.249939 628.769165,574.159119 
	C630.534485,575.136292 629.732849,577.133179 629.503601,578.725830 
	C628.359375,586.676880 626.109070,594.373230 623.513733,601.927429 
	C616.972778,620.965637 608.021118,638.749146 595.330750,654.528931 
	C574.598572,680.308167 547.833984,695.601562 515.361206,701.569763 
	C495.937042,705.139648 476.362366,706.765991 456.732941,706.207764 
	C418.710144,705.126404 381.048096,700.582581 343.972626,691.799866 
	C340.083038,690.878479 336.404419,689.203064 332.542938,688.168518 
	C328.373535,687.051453 327.289276,688.041382 327.772278,692.222900 
	C329.465637,706.882568 336.947876,714.742981 351.523956,717.848083 
	C381.543152,724.242920 411.938751,728.117554 442.405334,731.408875 
	C465.273712,733.879333 488.312927,734.748901 511.238892,733.420654 
	C538.061035,731.866577 564.515564,727.589966 589.699341,717.324829 
	C607.098450,710.232910 621.892212,699.252319 636.141174,687.405334 
	C659.130310,668.291565 679.061584,646.100281 699.500671,624.394836 
	C716.134155,606.730713 732.118103,588.213440 753.164612,575.379517 
	C762.490906,569.692505 772.446777,565.366699 783.702698,565.698975 
	C793.910645,566.000305 802.392151,570.277588 808.926697,578.062866 
	C816.103210,586.613159 822.451294,595.820190 829.480042,604.499146 
	C833.306335,609.223694 837.799500,613.117310 842.665466,616.644714 
	C853.033875,624.160828 864.402100,624.830933 876.523682,622.008362 
	C897.195923,617.194824 913.525513,605.830139 926.739746,589.597961 
	C929.024841,586.791016 932.577026,582.799866 930.200195,580.025146 
	C927.615173,577.007324 924.055847,581.263733 921.215454,582.838928 
	C913.061462,587.360840 905.343201,592.653870 896.833679,596.557373 
	C888.121155,600.553894 882.712524,599.317200 876.570801,591.897644 
	C872.368835,586.821167 869.820984,580.800110 867.027771,574.955627 
	C860.702148,561.719849 850.792664,551.456055 840.071228,541.855591 
	C835.507690,537.769165 829.891663,535.604736 823.694214,533.823853 
	C823.143860,533.455322 822.949280,533.274292 822.635010,532.716553 
	C822.832214,529.740540 824.934387,530.018311 826.681519,529.795898 
	C831.417358,529.193054 835.708191,530.779053 839.378296,533.403870 
	C855.068298,544.624939 868.056641,558.126770 874.507080,577.162476 
	C876.427917,582.084961 878.564026,586.584717 881.614380,590.584961 
	C885.151550,595.223572 888.348083,596.339050 893.721619,593.516418 
	C901.950562,589.193848 909.908203,584.351929 917.947144,579.672180 
	C921.262878,577.742004 924.596313,575.868591 928.368896,575.010193 
	C933.775757,573.779968 936.734192,576.684570 935.669617,582.122131 
	C934.876221,586.175049 932.585327,589.534790 930.072571,592.584900 
	C917.127808,608.298340 901.855225,620.619568 881.626587,625.889526 
	C865.677795,630.044495 851.026123,628.024963 837.382324,617.909912 
	C831.485291,616.688477 828.726807,611.967285 825.336792,608.270386 
	C818.713379,601.047302 812.602539,593.363708 806.417175,585.753967 
	C796.356384,573.376221 786.261658,570.412537 771.033020,575.491150 
	C758.345154,579.722412 747.886841,587.715027 737.467468,595.761047 
	C732.478882,599.613281 728.094177,604.222168 722.344971,607.685791 
	C708.035095,620.283203 696.450317,634.953491 683.991455,648.801575 
	C672.067200,662.055542 660.382812,675.531555 647.300598,687.673889 
	C644.860962,689.938232 644.835693,691.617798 646.260071,694.407227 
	C656.653809,714.762451 673.503357,726.445007 695.298279,731.999695 
	C718.241272,737.846863 741.671448,740.953979 764.934021,745.019165 
	C770.341736,745.964172 775.741211,746.995056 780.926025,748.849365 
	C783.357544,749.718994 786.783447,750.016479 787.090698,753.101746 
	C787.413513,756.343018 784.242859,757.561523 781.753174,758.836487 
	C776.247314,761.656006 770.425232,763.670837 764.455933,765.186218 
	C733.883667,772.947693 702.967590,775.327148 671.934387,768.908081 
	C644.638489,763.262024 618.979614,753.481628 597.229126,735.186768 
	C593.976318,732.450745 591.993713,727.393311 587.874451,726.934021 
	C584.048218,726.507507 579.933167,728.927063 575.911011,729.960083 
	C546.108704,737.614014 515.905884,742.470276 485.057037,740.792542 
	C464.446655,739.671692 443.896393,737.434937 423.324127,735.641663 
	C421.647064,735.495483 420.095734,735.247070 418.499573,736.129211 
	C397.225159,747.886353 373.746460,752.829163 350.343079,757.877136 
	C339.457611,760.225037 328.417603,761.861450 317.437744,763.763123 
	C314.112701,764.338989 310.921356,764.075012 307.291443,760.920288 
	C332.977814,754.318420 355.461090,742.588501 379.061157,729.578491 
	C368.101044,727.468933 358.651520,725.882874 349.496948,723.099670 
	C340.143066,720.255981 331.260529,716.614746 325.957977,707.559448 
	C322.251404,701.229492 321.125427,694.165955 319.875854,686.712646 
z"/>
<path fill="#0D0E0E" opacity="1.000000" stroke="none" 
	d="
M374.228455,181.668427 
	C393.149475,186.864014 411.106750,193.393906 427.284088,204.044785 
	C440.763733,212.919556 451.916718,223.875763 457.710846,239.390900 
	C463.672058,255.353409 461.557159,270.178375 451.072937,283.626984 
	C441.430450,295.995911 428.459534,304.108124 414.851776,311.356232 
	C399.685303,319.434662 383.828857,325.920868 367.667908,331.665833 
	C364.540741,332.777496 363.302002,334.287323 363.211060,337.673798 
	C362.862701,350.642059 362.191925,363.601654 361.579803,378.017456 
	C359.653900,375.798676 358.436340,374.322174 357.141846,372.916473 
	C348.110504,363.109467 338.997925,353.376038 330.072968,343.473358 
	C328.148163,341.337708 326.324219,340.810120 323.563263,341.319122 
	C291.500153,347.229675 259.324860,347.097870 227.017838,343.384155 
	C207.614868,341.153778 188.530029,337.587433 169.408173,332.192719 
	C152.955658,326.715057 137.044647,320.841522 122.794785,311.310883 
	C111.613617,303.832611 101.498863,295.230499 94.965996,283.191284 
	C83.172752,261.457855 86.812302,237.165848 103.946701,219.248764 
	C119.128166,203.373825 138.102997,193.865494 158.398376,187.006622 
	C204.341385,171.480057 251.844696,168.242722 299.922974,170.559509 
	C324.925751,171.764359 349.619476,175.105713 374.228455,181.668427 
z"/>
<path fill="#76CEED" opacity="1.000000" stroke="none" 
	d="
M874.575073,577.121765 
	C866.566528,561.450623 856.434692,547.226501 841.724915,536.640320 
	C836.316223,532.747864 830.756348,529.597961 823.373779,531.885376 
	C820.772461,531.944275 821.302917,530.279724 821.688965,529.172302 
	C824.363220,521.498901 821.225403,515.278564 817.044312,509.197723 
	C811.495605,501.127808 805.472107,493.366974 801.253174,484.427795 
	C799.199585,480.076538 798.363586,475.615173 798.790771,470.877960 
	C799.361511,464.548676 803.423828,459.896606 810.059753,458.473022 
	C831.048340,474.169067 850.979797,490.430237 865.699585,512.095459 
	C879.333679,532.162720 881.775269,553.769348 874.575073,577.121765 
z"/>
<path fill="#76CEED" opacity="1.000000" stroke="none" 
	d="
M722.388794,607.942749 
	C735.256592,594.619568 749.709290,583.052246 766.967957,575.421204 
	C783.576416,568.077698 796.053345,571.146362 807.720215,585.126709 
	C816.968750,596.209290 825.508362,607.937866 836.871521,617.546692 
	C817.828552,624.471619 798.186462,624.093445 778.424927,621.234802 
	C759.481506,618.494446 740.974670,613.863159 722.388794,607.942749 
z"/>
<path fill="#77CFEE" opacity="1.000000" stroke="none" 
	d="
M861.971924,392.659760 
	C856.594543,406.874756 843.267395,414.921722 830.206726,412.181183 
	C814.692261,408.925720 805.399719,397.150909 806.049133,381.570312 
	C806.623535,367.789978 819.950867,355.334625 834.349609,355.121307 
	C849.104797,354.902740 862.418091,367.100555 863.017578,381.417114 
	C863.170410,385.067444 863.444214,388.740662 861.971924,392.659760 
z"/>
<path fill="#77CFEE" opacity="1.000000" stroke="none" 
	d="
M682.790771,23.892893 
	C696.100281,5.146916 721.683472,8.276821 731.784729,25.819687 
	C737.993408,36.602207 735.501648,52.441296 726.392883,60.680882 
	C716.401428,69.718948 701.162415,70.926064 690.430542,63.529568 
	C679.409790,55.933941 674.971008,41.240574 680.067078,29.055372 
	C680.769226,27.376341 681.731873,25.806267 682.790771,23.892893 
z"/>
<path fill="#77CFEE" opacity="1.000000" stroke="none" 
	d="
M311.037781,164.179779 
	C295.289978,157.126236 288.794312,141.103668 295.194427,125.891655 
	C300.949402,112.213058 317.477264,105.396347 331.552032,110.896446 
	C346.520752,116.745880 353.624237,132.418564 348.230652,147.695419 
	C343.068329,162.317383 327.302551,169.429245 311.037781,164.179779 
z"/>
<path fill="#77CFEE" opacity="1.000000" stroke="none" 
	d="
M631.030518,107.435226 
	C634.676514,85.390015 659.169312,76.245285 676.113342,88.349838 
	C686.570618,95.820396 690.930664,110.260139 685.997559,122.080513 
	C680.688904,134.800781 667.176392,142.301514 654.116089,139.777756 
	C640.988647,137.240997 631.264893,125.960365 630.946655,112.868698 
	C630.906311,111.206848 630.984253,109.542122 631.030518,107.435226 
z"/>
<path fill="#070F12" opacity="1.000000" stroke="none" 
	d="
M810.702637,458.369995 
	C801.145020,462.406830 797.647400,469.677521 800.424255,479.458221 
	C802.130615,485.468842 805.594238,490.573822 808.982178,495.692444 
	C811.639282,499.706818 814.374451,503.682556 817.298767,507.504211 
	C822.907410,514.834167 825.964478,522.605774 822.668579,531.938721 
	C823.020569,532.070251 823.008789,532.483215 823.005005,532.689697 
	C822.466919,534.451233 821.321350,534.962158 819.862793,534.442688 
	C818.356079,533.906128 818.713440,532.556030 818.992981,531.458679 
	C821.242920,522.626038 818.409851,515.160217 813.232056,508.084167 
	C809.396301,502.842133 805.333191,497.756653 801.733643,492.350952 
	C797.063538,485.337463 794.324585,477.720337 796.479370,469.193726 
	C799.328369,457.919769 809.031189,450.413696 822.062927,449.847626 
	C830.507751,449.480804 839.046631,448.865997 847.385681,451.381500 
	C849.136047,451.909546 851.606140,453.011108 852.799866,450.707886 
	C853.859863,448.662628 852.091797,446.895264 850.801086,445.428192 
	C842.127869,435.569916 830.679504,430.857361 818.048584,430.537170 
	C795.329590,429.961273 773.898987,435.732117 753.938477,446.677551 
	C748.471436,449.675476 744.069214,454.002167 739.847595,458.527924 
	C732.618713,466.277649 732.136047,475.585266 733.988892,485.211884 
	C736.301819,497.229309 742.995605,506.961365 751.164124,515.733887 
	C754.791687,519.629700 758.485474,523.497131 762.632141,526.867493 
	C766.567505,530.065979 768.488708,534.386475 770.045532,539.261353 
	C770.580444,539.502991 770.795166,539.607483 771.248047,539.988159 
	C772.458557,543.014038 770.592529,544.642273 768.978882,546.253540 
	C759.116882,556.101318 746.980591,561.849548 733.406128,565.738281 
	C732.556763,565.973022 732.064880,566.070618 731.199219,566.186157 
	C719.763977,567.094666 709.503052,564.704651 700.147949,558.640930 
	C699.726501,558.367737 699.234436,558.286987 698.600830,558.745178 
	C698.900513,562.775391 699.177429,566.559875 701.152222,570.335754 
	C701.747314,571.581726 702.204529,572.477112 702.411255,573.462646 
	C702.620605,574.460327 702.732300,575.486328 701.721375,576.141724 
	C700.742004,576.776611 699.769470,576.388123 698.931519,575.824402 
	C695.207214,573.319214 693.488647,569.572754 692.888977,565.319702 
	C690.725098,549.973083 687.840881,534.756226 684.625793,519.605225 
	C679.119385,493.655396 672.575806,468.016876 660.553101,444.143646 
	C657.926880,438.928772 654.808350,434.010773 650.635010,429.300537 
	C650.126892,428.430511 649.935303,427.882416 649.744995,426.866089 
	C649.593262,424.278870 649.323914,422.111237 650.979370,419.913605 
	C664.549133,435.787140 672.625854,454.521423 679.008362,474.089233 
	C686.301941,496.450287 691.153687,519.388733 694.803650,542.594482 
	C695.095886,544.452820 695.499146,546.048157 696.968506,547.420837 
	C709.114197,558.767212 728.164490,565.830750 745.169495,556.964233 
	C749.587280,554.660767 754.248596,552.850037 758.525452,550.221924 
	C766.419312,545.371094 767.226257,538.283875 760.161621,531.887390 
	C753.744568,526.077209 746.781738,520.812134 741.704529,513.692200 
	C731.336975,499.153381 725.250366,483.502869 731.130798,465.485931 
	C734.217590,456.028503 741.339294,449.671295 749.505676,444.463440 
	C758.274902,438.871094 767.842346,435.055817 778.064697,431.884277 
	C791.836182,428.663177 805.252502,425.376892 819.241089,425.958008 
	C832.962219,426.527985 845.029724,430.615540 853.928467,441.717316 
	C854.861450,442.881226 855.891418,444.068573 856.434631,445.422333 
	C857.521301,448.130493 859.338745,451.098694 857.235107,453.867218 
	C855.025146,456.775482 851.608459,456.448792 848.492859,455.543793 
	C838.822266,452.734894 829.118652,452.923615 819.422485,455.137512 
	C816.531250,455.797638 813.789368,457.112091 810.702637,458.369995 
z"/>
<path fill="#77CFEE" opacity="1.000000" stroke="none" 
	d="
M356.687805,101.880844 
	C341.046173,95.585243 337.503693,79.612839 349.049347,69.253426 
	C354.848328,64.050255 364.175171,63.203564 370.878723,67.271721 
	C378.143463,71.680450 381.814972,80.551323 379.597229,88.336754 
	C377.268219,96.512611 370.345001,101.986671 362.089630,102.125481 
	C360.429352,102.153404 358.766205,102.010307 356.687805,101.880844 
z"/>
<path fill="#78D0EE" opacity="1.000000" stroke="none" 
	d="
M715.027039,115.671097 
	C715.121277,107.951988 718.623413,102.832207 724.573486,101.270782 
	C730.908936,99.608231 737.193298,102.280602 740.236267,107.931236 
	C743.734375,114.427116 740.978943,122.943016 734.340576,126.152290 
	C727.619568,129.401520 719.328979,126.567772 716.191528,119.878471 
	C715.636597,118.695221 715.420898,117.352821 715.027039,115.671097 
z"/>
<path fill="#78D0EE" opacity="1.000000" stroke="none" 
	d="
M644.822388,77.991180 
	C636.121704,77.511475 630.917297,72.342598 630.894226,64.577484 
	C630.872498,57.267361 636.202942,51.546539 643.446655,51.105614 
	C650.330872,50.686573 656.366760,55.895847 657.468262,63.207062 
	C658.519470,70.183800 653.517761,76.225388 644.822388,77.991180 
z"/>
<path fill="#78D0EE" opacity="1.000000" stroke="none" 
	d="
M360.896912,122.859650 
	C361.325836,114.182014 366.110718,109.155075 373.680054,108.995888 
	C381.133606,108.839142 386.922485,114.076256 387.607483,121.595810 
	C388.203979,128.144531 382.778351,134.409058 375.479095,135.599380 
	C368.508881,136.736053 361.984192,131.224136 360.896912,122.859650 
z"/>
<path fill="#FEAA05" opacity="1.000000" stroke="none" 
	d="
M651.277710,419.225037 
	C651.288330,421.819977 651.210144,423.980042 651.069824,426.595215 
	C648.558777,427.537506 647.415283,425.655609 646.158813,424.214325 
	C620.780823,395.101624 588.506104,378.936951 550.640930,373.233398 
	C549.041626,372.992493 547.202820,373.203735 546.645935,370.753784 
	C550.607727,365.644775 554.476013,360.903137 558.664490,356.045898 
	C562.041260,355.039154 564.944336,356.130920 567.817627,356.795563 
	C596.361389,363.398468 621.911865,376.038300 644.234802,395.062042 
	C646.493958,396.987366 648.780945,398.977783 650.497009,401.947266 
	C650.841919,407.786133 651.015442,413.288147 651.277710,419.225037 
z"/>
<path fill="#ED4B52" opacity="1.000000" stroke="none" 
	d="
M546.495300,370.500916 
	C551.249817,373.120361 556.519348,372.654877 561.408997,373.732666 
	C595.542542,381.256683 624.686279,397.203735 647.602173,423.927246 
	C648.464111,424.932465 649.458496,425.824158 650.699463,426.909546 
	C651.231750,427.283630 651.340027,427.561951 651.310913,428.113251 
	C651.611755,429.895599 652.717468,431.628632 650.869385,432.844391 
	C649.711304,433.606201 648.631836,432.616882 647.755188,431.913086 
	C634.330322,421.136169 618.568542,414.747589 602.840149,408.474823 
	C583.525452,400.771790 563.809387,394.233368 543.177429,390.848572 
	C539.538940,390.251678 535.863037,390.713379 531.905029,389.817657 
	C529.971619,385.333649 534.166992,383.800171 536.024414,380.730560 
	C536.999939,379.752655 537.801270,379.173065 539.099060,378.693359 
	C540.865662,376.949188 542.281067,375.322418 543.777649,373.398743 
	C544.656311,372.273041 545.453735,371.444244 546.495300,370.500916 
z"/>
<path fill="#EF4C51" opacity="1.000000" stroke="none" 
	d="
M650.758911,401.796997 
	C642.780457,395.729309 635.128479,388.904968 626.531555,383.214081 
	C606.064758,369.665680 583.668945,361.025818 559.329956,356.113708 
	C562.829773,351.354858 566.674866,346.779419 570.820679,342.035492 
	C573.043884,340.654663 574.971985,341.435730 576.875671,341.892731 
	C587.512756,344.446411 597.665100,348.411774 608.114502,352.645294 
	C608.703308,352.819794 608.935364,352.896332 609.502380,353.115295 
	C610.258789,353.483643 610.665771,353.733215 611.346375,354.204468 
	C612.945618,355.338226 614.295776,356.226898 615.577881,357.732788 
	C625.028748,368.252960 635.705811,376.372986 649.722534,380.725159 
	C651.231018,387.687317 650.766724,394.504761 650.758911,401.796997 
z"/>
<path fill="#EC4D55" opacity="1.000000" stroke="none" 
	d="
M648.702820,263.062073 
	C652.464966,264.489594 655.336670,267.058441 658.343994,269.979156 
	C668.180786,278.405182 670.946594,289.277496 670.431519,301.674896 
	C670.743530,311.649689 675.129700,319.866119 680.072876,327.757263 
	C683.646790,333.462433 687.833374,338.783844 692.143433,344.833252 
	C681.531006,343.715820 673.754883,348.122803 667.439880,355.561005 
	C665.785339,357.509857 665.160461,356.625641 664.463074,354.899841 
	C658.691467,340.619110 655.217957,325.608582 658.522278,310.574127 
	C662.008972,294.709839 658.877991,281.036621 650.207397,267.623535 
	C648.316162,266.447235 647.915283,265.081848 648.702820,263.062073 
z"/>
<path fill="#FFC85E" opacity="1.000000" stroke="none" 
	d="
M603.788574,303.452942 
	C604.771606,302.127533 605.520264,301.145050 606.546387,300.015625 
	C615.540283,300.881104 623.049316,305.274841 630.910339,308.622131 
	C634.518005,310.158325 638.272705,311.623779 641.451599,314.748840 
	C641.783936,315.338165 641.889648,315.591278 642.097473,316.247314 
	C642.557190,321.710266 642.533142,326.770630 642.127930,332.235840 
	C641.940613,332.891724 641.840149,333.143127 641.500732,333.715515 
	C640.439758,334.429321 639.629883,334.256622 638.894043,333.862000 
	C628.267761,328.163696 617.274109,323.261688 605.830566,318.428589 
	C605.385498,317.937561 605.233276,317.715820 604.909058,317.125183 
	C603.814331,312.484344 601.980042,308.295593 603.788574,303.452942 
z"/>
<path fill="#FFBB36" opacity="1.000000" stroke="none" 
	d="
M615.206970,358.309509 
	C613.740540,357.305878 612.555115,356.526764 611.161621,355.524597 
	C610.822144,354.955597 610.629639,354.646973 610.166260,354.202637 
	C609.948425,354.034393 609.992676,354.059509 609.968018,354.065887 
	C604.880005,347.895752 600.165771,341.525330 598.682495,333.134125 
	C604.032349,331.707092 607.831726,335.411469 612.689453,336.763123 
	C613.967957,337.308228 614.734924,337.933655 615.649292,338.950928 
	C622.501038,349.821686 630.817871,358.696411 642.092712,365.057129 
	C644.075806,367.196228 646.299316,367.944855 649.129089,368.139832 
	C649.652344,368.345428 649.849487,368.457733 650.232544,368.855103 
	C650.495056,370.839752 650.571594,372.539398 650.605713,374.664856 
	C650.487122,375.844543 650.461182,376.599396 650.584351,377.632141 
	C650.646729,378.667511 650.645325,379.426605 650.516602,380.542480 
	C650.389343,380.899292 650.413879,380.937561 650.406250,380.957825 
	C648.522644,380.995178 647.502991,379.553253 646.232910,378.535919 
	C637.938110,371.891602 628.928833,366.340027 619.661133,361.186829 
	C618.215759,360.383179 616.691467,359.713989 615.206970,358.309509 
z"/>
<path fill="#F58C90" opacity="1.000000" stroke="none" 
	d="
M641.325317,314.550720 
	C630.078918,309.386292 618.911743,304.420807 607.075317,300.148682 
	C610.322388,295.642303 613.821045,291.415894 617.614258,287.025116 
	C618.982788,286.145508 620.150818,286.222656 621.251160,286.655914 
	C628.025513,289.323090 634.993835,291.563873 641.418457,295.921265 
	C641.791504,296.525116 641.908936,296.789825 642.135803,297.482117 
	C642.412109,303.357513 643.224548,308.829407 641.325317,314.550720 
z"/>
<path fill="#FEAA05" opacity="1.000000" stroke="none" 
	d="
M598.908691,332.630035 
	C601.220642,340.559662 606.288757,346.574768 609.933899,353.714539 
	C606.551758,354.499634 604.023254,352.271606 601.137634,351.171631 
	C591.570374,347.524658 581.891174,344.249878 571.506836,341.925629 
	C574.888245,337.295197 578.654968,332.723358 582.720947,327.983032 
	C588.196838,326.382568 592.312744,329.841400 597.316223,331.006256 
	C598.126648,331.447723 598.499756,331.808319 598.908691,332.630035 
z"/>
<path fill="#7DB5E7" opacity="1.000000" stroke="none" 
	d="
M670.551575,302.085754 
	C669.279236,290.582367 666.394714,279.854889 658.751587,270.481415 
	C663.255859,270.528259 665.641663,274.570160 668.316345,277.246216 
	C676.366211,285.300171 683.115417,294.522797 687.965698,304.960480 
	C688.919861,307.013733 690.393188,309.410858 685.854248,308.189056 
	C683.099243,307.447418 680.598022,309.298187 678.475952,310.543976 
	C675.507141,312.286957 674.879456,311.075348 674.000610,308.677399 
	C673.174011,306.421997 673.217834,303.704865 670.551575,302.085754 
z"/>
<path fill="#FFC85E" opacity="1.000000" stroke="none" 
	d="
M641.269470,295.746338 
	C633.530823,293.037872 626.093811,290.028503 618.282837,286.939941 
	C620.833069,282.161743 624.803955,278.317474 628.611450,273.919739 
	C634.826416,272.957306 639.560181,275.140991 643.379761,280.004272 
	C641.524048,285.282928 643.417114,290.588928 641.269470,295.746338 
z"/>
<path fill="#F18E93" opacity="1.000000" stroke="none" 
	d="
M643.348877,280.162933 
	C639.060852,276.961365 634.505188,275.109131 629.284790,273.808167 
	C631.479492,270.534973 633.987549,267.273438 636.659729,264.152374 
	C640.854553,259.252930 642.799194,258.984558 648.765625,262.477173 
	C648.835388,264.172455 649.181458,265.482361 649.896851,267.038391 
	C649.885925,271.931702 649.833435,276.503754 649.696777,281.534088 
	C647.318298,282.563080 645.410767,281.599609 643.348877,280.162933 
z"/>
<path fill="#EC4D55" opacity="1.000000" stroke="none" 
	d="
M542.732971,294.235687 
	C537.193481,288.662567 537.193481,288.662567 542.650391,283.178345 
	C548.703735,277.094696 548.703735,277.094696 554.819092,283.262238 
	C560.223816,288.713104 560.223877,288.713135 554.677673,294.303436 
	C554.560486,294.421509 554.443176,294.539490 554.326111,294.657593 
	C548.745483,300.284210 548.745483,300.284210 542.732971,294.235687 
z"/>
<path fill="#7CB6E8" opacity="1.000000" stroke="none" 
	d="
M671.753418,392.262756 
	C665.997498,386.499756 665.997498,386.499786 672.791931,379.718964 
	C677.508301,375.011993 677.495483,375.024780 683.859802,381.361664 
	C690.006775,387.482056 689.029907,386.358551 682.362915,393.132263 
	C677.534180,398.038330 677.500244,398.004944 671.753418,392.262756 
z"/>
<path fill="#516E7F" opacity="1.000000" stroke="none" 
	d="
M544.741699,325.880066 
	C544.704529,328.869110 546.206970,331.989136 543.092102,333.941925 
	C539.506287,336.190002 536.045532,333.225739 532.470764,333.440155 
	C531.722229,333.485077 531.141602,332.431335 531.147583,331.546021 
	C531.154968,330.458740 531.806702,329.675781 532.781494,329.244019 
	C534.223755,328.605286 535.788940,328.667480 537.191711,329.140900 
	C539.904114,330.056335 540.170715,329.093903 539.882141,326.611633 
	C539.311768,321.704285 541.416382,319.502563 546.073792,320.495483 
	C548.912659,321.100739 549.036804,320.208862 549.124695,317.909790 
	C549.331177,312.508179 551.237732,311.157227 556.399475,312.356049 
	C557.366150,312.580566 558.320862,312.991608 559.292358,313.029785 
	C560.973083,313.095825 563.048218,312.758789 562.866150,315.233917 
	C562.670593,317.893463 560.366211,318.354614 558.361450,317.839233 
	C555.156860,317.015381 553.510925,316.575165 554.481689,321.165497 
	C555.355774,325.298798 551.982117,326.887970 545.620483,325.726990 
	C545.056458,325.688324 544.862854,325.638763 544.741699,325.880066 
z"/>
<path fill="#F26F73" opacity="1.000000" stroke="none" 
	d="
M599.396545,333.040466 
	C598.743347,332.862427 598.488403,332.678955 598.132568,332.257935 
	C595.069397,327.010742 592.669922,321.815186 593.772583,315.372253 
	C594.143860,314.716675 594.299133,314.414154 594.687195,313.994751 
	C598.918762,312.734497 602.102600,314.784485 605.635071,316.833160 
	C605.909302,317.123688 605.955505,317.552429 605.992798,317.764771 
	C609.293457,324.135162 612.081848,330.476105 613.269775,337.671814 
	C608.622009,336.355194 604.193726,334.715485 599.396545,333.040466 
z"/>
<path fill="#7CB6E8" opacity="1.000000" stroke="none" 
	d="
M590.304260,289.537750 
	C589.740540,291.566895 590.576355,293.813110 588.272461,294.584747 
	C587.664551,294.788330 586.589478,294.336487 586.040100,293.840729 
	C584.186096,292.167633 585.090088,290.275391 585.801331,288.389648 
	C586.295166,287.080383 588.112976,285.126831 584.621033,285.248749 
	C578.143066,285.474976 576.778931,283.629333 578.804504,277.405823 
	C579.005371,276.788574 579.169067,276.159241 579.426514,275.271942 
	C578.109497,275.170410 576.981689,275.102081 575.857727,274.993469 
	C571.692688,274.590851 570.100830,272.155701 571.483765,268.155487 
	C572.020020,266.604218 573.026672,265.227539 573.018005,263.477661 
	C573.011963,262.256042 573.232483,261.024536 574.903198,261.245728 
	C576.257324,261.425049 576.836975,262.450195 576.930725,263.703094 
	C577.004517,264.688934 577.287842,265.926666 576.832214,266.640015 
	C574.319031,270.574921 576.032349,271.302094 579.784729,271.025238 
	C584.465210,270.679962 584.521057,273.979370 583.736023,277.014679 
	C583.033630,279.730255 583.041626,280.885742 586.325745,281.079224 
	C591.478455,281.382812 592.670105,284.001892 590.304260,289.537750 
z"/>
<path fill="#EFA5A4" opacity="1.000000" stroke="none" 
	d="
M649.698181,338.631348 
	C650.709290,345.334564 651.098938,351.744659 650.497498,358.637207 
	C646.231995,359.931824 644.456482,355.973083 641.079102,354.426331 
	C640.447998,353.706879 640.186218,353.220428 639.884521,352.271271 
	C639.586792,346.117493 638.730530,340.363281 640.696289,334.367249 
	C641.014771,334.037048 640.997314,333.957367 640.999634,333.916656 
	C644.743103,333.628754 647.203735,335.835510 649.698181,338.631348 
z"/>
<path fill="#FED37E" opacity="1.000000" stroke="none" 
	d="
M649.942505,338.482422 
	C647.120483,337.370056 644.363647,335.798035 641.304382,334.050964 
	C641.022461,328.176147 641.043091,322.476379 641.107178,316.299377 
	C644.658020,314.368713 646.974792,316.533142 649.589294,318.823181 
	C649.888428,325.424805 649.948059,331.723785 649.942505,338.482422 
z"/>
<path fill="#F5A4A7" opacity="1.000000" stroke="none" 
	d="
M649.907227,318.650635 
	C647.173706,318.059692 644.518616,316.993591 641.507080,315.874817 
	C641.150574,315.822174 641.078247,315.357635 641.046631,315.123779 
	C641.015930,309.223267 641.016785,303.556641 641.030579,297.419006 
	C644.419434,295.698486 646.640747,298.158844 649.469727,299.766144 
	C649.812683,306.086182 649.899170,312.130829 649.907227,318.650635 
z"/>
<path fill="#FED37E" opacity="1.000000" stroke="none" 
	d="
M649.793701,299.572083 
	C646.669678,300.106354 644.512390,297.774902 641.397949,296.998657 
	C641.043457,296.947998 641.004578,296.497314 640.986206,296.272278 
	C640.978455,292.276642 640.992126,288.506042 640.998413,284.735413 
	C641.001099,283.097870 640.822083,281.406860 642.789551,280.074890 
	C645.115173,280.458008 647.079346,281.053101 649.328125,281.820251 
	C649.695496,287.695801 649.778320,293.399200 649.793701,299.572083 
z"/>
<path fill="#ED4F53" opacity="1.000000" stroke="none" 
	d="
M593.683655,315.151031 
	C594.061523,320.745789 596.913391,325.787262 597.998047,331.663330 
	C593.262024,330.692535 588.521729,329.323914 583.400818,327.884888 
	C586.473022,323.637299 589.925903,319.460083 593.683655,315.151031 
z"/>
<path fill="#FED37E" opacity="1.000000" stroke="none" 
	d="
M641.650757,354.407196 
	C644.580322,355.666779 647.180542,357.284668 650.066406,358.994263 
	C650.452148,360.168518 650.552246,361.251068 650.552368,362.733887 
	C650.452454,363.134216 650.522522,363.490601 650.471924,363.665039 
	C650.510925,364.668915 650.600464,365.498352 650.632141,366.743103 
	C650.520752,367.612335 650.464966,368.066010 650.189697,368.785461 
	C647.181702,369.006470 644.179749,369.649200 642.101196,366.373779 
	C640.005310,362.382446 640.019531,358.608215 641.650757,354.407196 
z"/>
<path fill="#FFBB36" opacity="1.000000" stroke="none" 
	d="
M605.892273,316.711395 
	C602.495728,316.097290 599.082092,315.070862 595.294250,313.961182 
	C597.249451,309.970245 600.543335,306.844879 603.725708,303.248993 
	C603.805115,307.623718 604.923401,311.949707 605.892273,316.711395 
z"/>
<path fill="#EFA5A4" opacity="1.000000" stroke="none" 
	d="
M650.754761,377.561584 
	C649.946289,377.197845 650.018250,376.359192 650.405884,375.292511 
	C650.662598,375.798706 650.761963,376.506714 650.754761,377.561584 
z"/>
<path fill="#EFA5A4" opacity="1.000000" stroke="none" 
	d="
M650.080139,369.094299 
	C650.068054,368.549133 650.163391,368.046722 650.416504,367.351318 
	C650.624878,367.610413 650.675476,368.062500 650.572266,368.827332 
	C650.418518,369.140106 650.187500,369.137024 650.080139,369.094299 
z"/>
<path fill="#EFA5A4" opacity="1.000000" stroke="none" 
	d="
M650.513672,363.666870 
	C650.267578,363.673828 650.234558,363.488464 650.387329,363.208740 
	C650.452454,363.134216 650.605896,363.494263 650.513672,363.666870 
z"/>
<path fill="#0E82C5" opacity="1.000000" stroke="none" 
	d="
M530.582581,389.049988 
	C541.481201,388.091644 551.528625,390.578217 561.481445,393.243988 
	C587.264954,400.149902 612.183960,409.355316 635.717590,422.081848 
	C640.973755,424.924255 645.992798,428.131622 650.390381,432.371552 
	C651.676636,431.410828 650.966125,430.154694 651.245239,428.739532 
	C658.141296,434.727814 662.005249,443.041321 665.683044,451.362183 
	C675.885681,474.445435 681.942505,498.788086 686.924316,523.424194 
	C689.689941,537.101074 692.473755,550.777588 694.224670,564.637268 
	C694.838867,569.499451 697.038025,573.405701 701.682495,576.225586 
	C702.257202,574.089355 700.649353,573.055725 700.110229,571.331116 
	C702.023499,569.222229 704.167480,570.357666 706.235596,570.651917 
	C712.801392,571.585938 719.257690,573.133423 726.030212,572.409607 
	C737.641479,571.168701 746.990479,565.397949 756.735718,557.705933 
	C751.524353,561.549988 741.197693,566.001953 736.719788,566.592407 
	C735.078186,566.808777 733.337646,567.236938 732.627441,564.839966 
	C746.101501,560.755310 758.379395,555.101318 768.222290,545.067505 
	C769.480286,543.785156 770.341492,542.113525 771.560059,540.290894 
	C771.174744,538.373352 772.705688,537.327087 772.867859,535.932434 
	C772.458313,537.392761 771.477844,538.462646 770.251465,539.768555 
	C769.365051,540.157349 768.278748,542.833130 768.143799,540.033386 
	C767.877869,534.514465 764.842712,530.817749 761.105042,527.335510 
	C753.185364,519.957153 745.269714,512.576294 739.540955,503.222229 
	C734.469910,494.942108 731.603638,485.994690 731.503113,476.285797 
	C731.378174,464.214386 738.394897,456.012665 747.345398,449.415344 
	C761.304565,439.126129 777.523987,434.170898 794.349976,431.035645 
	C807.730347,428.542419 821.118164,427.473694 834.233215,432.443024 
	C841.998535,435.385315 848.825439,439.694946 853.623657,446.712372 
	C854.774353,448.395264 855.954712,450.192963 854.727173,452.222931 
	C853.416382,454.390625 851.284058,453.771790 849.326965,453.291565 
	C838.870789,450.725739 828.340332,449.751770 817.688049,451.911041 
	C799.404175,455.617279 791.664246,472.224915 801.122681,488.403534 
	C805.302612,495.553375 810.719604,501.976776 815.527222,508.763794 
	C820.442322,515.702515 823.270874,523.111694 820.381714,531.713806 
	C819.362793,534.747498 821.552490,532.929688 822.721191,532.988159 
	C830.988220,533.172058 837.261658,537.266052 842.933533,542.288635 
	C854.000000,552.088196 863.423218,563.201843 869.632690,576.816528 
	C872.114929,582.258911 874.671997,587.693420 878.716736,592.260620 
	C883.301270,597.437256 887.334778,598.619568 893.812866,596.243835 
	C901.854858,593.294739 908.808228,588.321594 916.144958,584.061279 
	C920.029846,581.805359 923.842712,579.366882 927.916016,577.511108 
	C931.753906,575.762512 933.284241,577.192261 932.569702,581.318604 
	C931.449463,587.787659 927.061890,592.328552 922.786133,596.680054 
	C908.048584,611.678711 890.763855,622.056580 869.496155,624.779236 
	C855.070923,626.625916 843.476196,621.077332 833.626587,611.032532 
	C824.377808,601.600342 817.024902,590.636475 808.924011,580.278137 
	C799.994507,568.860107 786.333191,564.586548 772.340942,568.529236 
	C758.517944,572.424255 746.881042,580.079956 736.385193,589.461487 
	C712.366028,610.930725 691.755005,635.746338 669.156433,658.617981 
	C652.031677,675.949646 634.242554,692.500977 613.926270,706.103577 
	C593.303345,719.911316 570.106812,726.718201 545.965576,730.986389 
	C515.377625,736.394287 484.593475,736.180786 453.809662,733.834045 
	C428.913361,731.936096 404.144409,728.667603 379.504913,724.572510 
	C369.659698,722.936218 359.888977,720.856567 350.067932,719.068909 
	C332.766327,715.919678 327.525696,704.607422 326.015015,689.247131 
	C325.518372,684.197510 329.060608,685.321594 331.668732,686.286865 
	C343.755951,690.760315 356.325043,693.233032 368.940247,695.495300 
	C401.617981,701.355347 434.521576,704.996582 467.764343,704.644470 
	C488.798859,704.421631 509.708771,702.511841 530.000610,696.678101 
	C567.299866,685.954651 593.214661,661.576843 610.903748,627.779297 
	C619.599915,611.164124 625.695312,593.605469 628.841553,573.943054 
	C626.174744,576.225037 624.118958,577.903931 622.151123,579.680176 
	C598.955994,600.616089 573.555481,618.079590 544.063599,629.023926 
	C517.287659,638.960327 489.474091,644.077271 461.036835,644.894287 
	C414.552734,646.229675 369.039734,639.961914 324.836060,625.152283 
	C316.766449,622.448730 316.616302,622.360474 317.024231,613.805237 
	C318.056915,592.149353 320.885986,570.687866 325.381836,549.501526 
	C327.515991,539.444580 325.717804,529.601929 325.521423,519.666565 
	C325.074005,497.031586 323.746368,474.374268 326.980774,451.831085 
	C329.975006,430.961823 341.524963,416.115479 359.841766,406.302765 
	C378.704681,396.197479 399.192322,391.013947 420.039764,387.180176 
	C453.013550,381.116455 486.275360,377.627289 519.812622,377.127014 
	C526.121826,377.032867 532.442749,377.718140 539.104248,378.309875 
	C538.864319,379.287903 538.278381,379.999847 537.388367,380.870819 
	C535.613953,381.923981 534.043091,382.251953 532.309814,382.123749 
	C498.686798,379.637207 465.500305,383.498962 432.486420,389.298340 
	C412.302948,392.843872 392.218658,396.947357 373.105225,404.678131 
	C360.930969,409.602234 349.706268,415.804688 341.623535,426.725037 
	C334.497040,436.353363 331.838043,447.432129 330.471313,458.911987 
	C328.460449,475.802063 329.177765,492.783295 329.469238,509.739655 
	C329.464294,510.405731 330.376495,509.713654 329.733185,509.888580 
	C329.602966,509.924011 329.535950,509.782288 329.523560,509.463928 
	C329.102264,498.659851 329.112762,487.924042 330.508759,477.117310 
	C333.388428,454.825104 344.576752,437.611389 361.520691,423.631500 
	C378.689148,409.466400 398.862610,402.155487 420.365753,397.753387 
	C433.107483,395.144958 445.961334,393.398254 458.848145,391.786255 
	C463.160889,391.246796 467.111877,392.315247 470.944580,394.093140 
	C488.664703,402.313202 506.340698,399.217590 524.045837,393.998840 
	C526.857239,393.170135 527.650146,390.114655 530.582581,389.049988 
z"/>
<path fill="#FBFBFB" opacity="1.000000" stroke="none" 
	d="
M591.383911,646.821777 
	C591.948303,649.072998 591.722839,650.722717 590.153748,652.474060 
	C584.239075,659.075684 577.539368,664.776917 570.738342,670.419067 
	C567.065247,673.466370 567.215515,668.519226 564.556641,668.138489 
	C567.571716,674.110779 563.054626,675.782776 559.335388,677.835632 
	C554.529846,680.488098 549.712952,683.133606 544.789551,685.555603 
	C538.721497,688.540588 538.671936,688.439819 534.927979,682.151367 
	C537.447693,690.569824 531.203186,690.812500 526.445618,692.369568 
	C523.921326,693.195740 521.320007,693.783569 518.776245,694.554077 
	C514.002075,696.000244 508.999420,698.239868 506.996368,689.828003 
	C508.800140,697.311096 504.713165,697.770813 499.723480,698.305237 
	C493.255981,698.997864 486.752258,698.957825 480.316376,699.713379 
	C475.056091,700.330872 471.466797,699.349731 471.502930,692.528320 
	C471.681427,699.656860 467.847900,700.280579 462.553253,699.632568 
	C456.779144,698.925964 450.933502,698.649170 445.112152,698.533813 
	C440.845215,698.449280 437.852875,697.556519 438.868256,692.347778 
	C438.361725,692.395264 437.864716,692.390076 437.856720,692.450012 
	C437.170502,697.598694 434.404541,698.248474 429.620544,697.345947 
	C422.448730,695.992981 415.084167,695.665527 407.803528,694.884033 
	C400.942505,694.147583 400.943604,694.137451 399.443756,687.112671 
	C399.032501,694.480103 394.668121,693.177002 390.250671,692.343689 
	C384.533264,691.265198 378.767273,690.410828 372.996155,689.660278 
	C367.564270,688.953735 362.133484,688.465210 362.861847,680.443481 
	C360.891144,687.301331 360.887573,687.319580 354.189728,686.004822 
	C349.137543,685.013123 343.059967,685.205627 339.506439,681.938171 
	C335.929657,678.649353 338.570984,672.538513 337.918701,667.709229 
	C337.583008,665.223877 337.491211,662.726318 335.589294,660.423950 
	C335.408020,660.092834 335.590271,659.934021 335.490479,660.003662 
	C336.386108,658.252625 337.933624,659.684631 339.186005,659.960938 
	C344.708374,661.179565 350.132782,662.936157 355.699829,663.831177 
	C360.941376,664.673950 363.366028,667.305542 363.099182,674.173096 
	C364.746948,668.308228 367.570984,667.156433 371.888733,667.894348 
	C379.262970,669.154663 386.704529,670.046143 394.137726,670.924255 
	C397.363739,671.305298 399.070892,673.311584 400.398163,676.215698 
	C402.055786,673.617554 404.130371,672.708740 406.887543,672.988525 
	C415.494995,673.862000 424.108276,674.690002 432.730103,675.404785 
	C436.227966,675.694702 436.990692,678.635437 438.609192,681.070984 
	C439.582397,676.662109 442.201385,674.803650 446.517426,674.991760 
	C452.338989,675.245483 458.170532,675.440918 463.995270,675.387634 
	C467.370026,675.356750 469.248047,677.677368 471.582886,679.359497 
	C473.237671,676.607849 475.645599,675.223572 478.865875,674.863342 
	C485.311768,674.142212 491.761719,673.377930 498.156097,672.309204 
	C501.249207,671.792175 502.410675,674.423218 504.548309,675.497681 
	C505.534851,669.319153 525.553284,664.613708 532.051758,669.268921 
	C532.024292,665.160950 534.567688,663.550049 537.898804,662.359680 
	C542.436340,660.738281 546.973145,659.002563 551.256897,656.818787 
	C554.692627,655.067261 557.667908,654.240662 561.069519,658.512756 
	C559.354065,647.977905 567.901550,647.262268 573.055603,644.313171 
	C577.391418,641.832153 581.048096,635.242981 588.090759,639.618774 
	C586.988586,634.886780 589.369690,632.089111 592.915710,629.618103 
	C597.006348,626.767456 600.861084,623.569214 604.729370,620.412964 
	C606.371399,619.073181 608.001404,618.156494 610.570312,618.852295 
	C611.123108,619.108154 611.272766,619.292847 611.228638,619.776733 
	C606.251221,629.817444 601.603577,639.645752 593.326111,647.127747 
	C592.591553,646.484070 592.113403,646.307678 591.383911,646.821777 
z"/>
<path fill="#FBFBFB" opacity="1.000000" stroke="none" 
	d="
M620.264526,587.875244 
	C616.537537,595.738220 611.753662,602.545837 607.452698,609.646484 
	C606.110474,611.862488 604.106262,611.902405 601.693542,612.341125 
	C605.860474,617.032166 603.092102,619.689026 599.384705,622.142639 
	C595.775208,624.531555 592.061707,626.805725 588.695129,629.505859 
	C586.076538,631.606079 583.819641,631.844055 580.635925,628.834778 
	C582.610901,634.230591 579.933960,636.543396 576.604187,638.617981 
	C572.367981,641.257446 568.114441,643.888855 564.052368,646.782043 
	C560.800659,649.098022 557.928528,649.990540 554.818237,645.086365 
	C555.147583,650.309143 552.657715,652.395264 549.234497,653.995300 
	C545.019897,655.965149 540.950745,658.245728 536.815002,660.384949 
	C536.373901,660.613159 535.857483,661.041382 535.461914,660.959839 
	C530.306763,659.896240 526.639343,663.751587 522.182495,664.856934 
	C517.030945,666.134644 511.414703,668.154297 506.529816,667.184509 
	C501.237732,666.133728 498.609589,670.285522 494.367767,670.579102 
	C489.727966,670.900146 485.113129,671.610291 480.495178,672.210693 
	C476.099701,672.782104 472.618439,671.870544 471.501282,666.198364 
	C470.586914,671.018188 467.649048,671.952148 464.003448,672.135010 
	C444.478821,673.114319 442.706207,672.743225 438.829773,666.035339 
	C436.152679,672.306335 430.912079,672.295288 425.481628,672.043518 
	C419.655640,671.773376 413.894379,671.074036 408.120117,670.272400 
	C403.648102,669.651550 401.129669,667.830322 401.672333,662.710022 
	C399.338593,668.094177 395.180267,668.616272 390.343842,668.274597 
	C383.819000,667.813477 377.541138,666.247620 371.221649,664.773621 
	C367.795685,663.974487 366.037476,662.055725 366.383820,657.710144 
	C362.081726,663.968872 356.548401,662.231873 351.149231,660.950500 
	C346.780792,659.913879 342.500244,658.450256 338.095306,657.640503 
	C333.952698,656.878845 332.540375,654.531250 332.760834,650.670227 
	C332.789062,650.175720 332.678925,649.674622 332.652985,649.175537 
	C332.001099,636.641785 333.423035,635.548828 345.116852,638.752502 
	C351.204041,640.420227 357.386078,641.843750 363.608459,642.876465 
	C367.148041,643.463806 368.139923,645.047852 367.566620,648.767212 
	C370.697601,643.249878 375.248138,645.000549 379.676208,645.731445 
	C384.766602,646.571655 389.872040,647.458923 395.007050,647.843628 
	C398.556793,648.109558 401.535797,648.536987 402.135040,653.898376 
	C404.054901,648.904175 407.108154,649.038086 410.621490,649.403564 
	C417.410614,650.109802 424.271515,650.976807 431.050964,650.662292 
	C436.707642,650.399902 439.320526,652.164185 439.592987,658.482727 
	C439.720306,649.075195 446.116608,650.895935 451.384186,650.697815 
	C455.545380,650.541321 459.734802,650.511169 463.851471,649.968201 
	C468.106049,649.407104 471.077332,650.066711 471.435486,655.641174 
	C472.033844,648.184204 477.386108,648.502808 482.310913,648.001831 
	C486.283875,647.597595 490.267944,647.149841 494.185730,646.400635 
	C497.809479,645.707642 500.889954,645.432007 501.449799,650.892944 
	C501.864410,645.273254 505.394409,644.222595 509.700745,643.824463 
	C512.496826,643.566040 515.229736,642.666931 518.004272,642.122681 
	C522.040894,641.331055 526.767273,638.230164 528.552307,646.290894 
	C527.625854,639.872803 530.773315,638.412781 535.156555,637.567322 
	C538.399048,636.941772 541.624268,635.857910 544.632324,634.485413 
	C547.932312,632.979675 550.163879,633.364441 551.771790,637.254700 
	C551.496155,631.824097 554.997498,630.280884 558.976440,629.183838 
	C565.250305,627.454102 570.022095,621.962463 576.996399,621.982056 
	C591.084961,610.543945 607.123779,601.457764 619.201660,587.037903 
	C619.734802,587.036316 619.968262,587.230286 620.264526,587.875244 
z"/>
<path fill="#0E81C4" opacity="1.000000" stroke="none" 
	d="
M751.773804,749.364868 
	C760.285156,749.622375 768.402649,751.386475 776.534668,753.050842 
	C777.614441,753.271851 779.049438,753.368347 779.078674,754.856323 
	C779.104797,756.190735 777.823425,756.685791 776.816406,757.258911 
	C770.028259,761.122681 762.451660,762.553833 754.932373,763.776123 
	C736.345581,766.797546 717.561218,768.522644 698.764465,767.738586 
	C661.372437,766.178772 627.945618,753.584473 598.996277,729.635315 
	C597.242554,728.184448 595.348328,726.737671 594.145752,724.266541 
	C610.063354,717.730469 623.874695,707.983337 636.990295,697.159668 
	C638.433411,695.968750 639.430786,695.172546 640.716187,697.540833 
	C651.348267,717.129761 668.665161,728.267090 689.145081,735.108643 
	C708.765686,741.663025 729.117493,745.042786 749.822021,748.475830 
	C749.461426,752.345642 746.707886,750.887634 744.788391,750.575806 
	C727.519043,747.770996 710.348999,744.444092 693.306030,740.468872 
	C684.652649,738.450562 676.403870,735.397400 668.554810,731.243347 
	C665.315735,729.529175 662.219971,727.603027 659.394043,725.280701 
	C671.194763,735.753967 685.642944,740.696289 700.513672,744.556335 
	C711.482300,747.403503 722.733948,748.912048 733.924561,750.671753 
	C736.600342,751.092590 740.749512,750.689575 741.111694,753.835205 
	C741.564880,757.771729 737.125183,758.070862 734.292786,759.098389 
	C729.440002,760.858765 724.260376,761.561462 719.485291,763.476685 
	C735.378723,764.241943 761.702576,760.097656 769.390259,755.478027 
	C765.124207,753.900391 760.780701,753.764404 756.649475,752.731445 
	C754.723328,752.249878 752.055298,752.692688 751.773804,749.364868 
z"/>
<path fill="#1C96CE" opacity="1.000000" stroke="none" 
	d="
M751.685547,748.928101 
	C753.170166,752.475342 756.520630,751.017944 758.787476,751.801819 
	C762.336975,753.029114 766.221069,753.286438 769.961182,753.966736 
	C770.873047,754.132629 772.216919,753.672424 772.461182,754.982300 
	C772.738770,756.471558 771.321594,756.877075 770.301147,757.298462 
	C765.374146,759.333008 760.211609,760.523315 754.988525,761.525818 
	C742.749329,763.875000 730.416504,765.156311 717.946411,764.980286 
	C717.176086,764.969421 716.408630,764.753113 714.625488,764.473022 
	C718.697876,761.706177 722.533569,761.084412 726.168640,759.977661 
	C730.291199,758.722412 734.418762,757.482727 738.526245,756.179749 
	C739.475525,755.878540 740.554504,755.332275 740.518799,754.215515 
	C740.475159,752.849182 739.131165,753.061646 738.214478,752.899414 
	C728.940186,751.258118 719.651611,749.695618 710.387695,747.997925 
	C693.429138,744.890137 677.148315,739.918762 662.850952,729.871399 
	C659.829590,727.748047 656.991699,725.265625 654.922180,721.232361 
	C658.171936,721.536194 659.335693,723.883911 661.066895,725.132507 
	C674.229614,734.626343 689.473389,738.580261 704.963196,741.779419 
	C719.049622,744.688843 733.213745,747.223389 747.355530,749.859680 
	C748.079956,749.994690 748.916016,749.531433 749.930115,749.012939 
	C750.571899,748.723938 750.983643,748.768616 751.685547,748.928101 
z"/>
<path fill="#0E7EC0" opacity="1.000000" stroke="none" 
	d="
M343.224487,756.189026 
	C337.787109,757.286743 332.764282,758.296692 327.741455,759.306641 
	C327.647614,759.013977 327.553772,758.721313 327.459961,758.428650 
	C333.543793,755.677185 339.678436,753.031860 345.700714,750.151672 
	C357.703735,744.411072 369.674805,738.601379 381.587769,732.676758 
	C384.109955,731.422363 386.408936,731.126038 389.206604,731.604736 
	C395.753052,732.724609 402.377106,733.391052 410.447601,734.431702 
	C388.555939,745.631042 366.263184,751.361938 343.224487,756.189026 
z"/>
<path fill="#E5E5E5" opacity="1.000000" stroke="none" 
	d="
M611.300903,619.843262 
	C611.005493,619.884888 610.976196,619.693848 610.960144,619.213135 
	C609.038513,616.118042 609.460876,613.467407 611.176208,610.660034 
	C613.703918,606.523010 615.993958,602.240845 618.774841,598.211121 
	C618.008972,605.943176 614.429810,612.654602 611.300903,619.843262 
z"/>
<path fill="#516E7F" opacity="1.000000" stroke="none" 
	d="
M619.493042,596.367554 
	C619.296936,595.267944 619.679382,594.609314 620.489563,594.266479 
	C620.550049,594.240845 620.918457,594.650330 620.940186,594.877075 
	C621.026123,595.772461 620.705811,596.439636 619.493042,596.367554 
z"/>
<path fill="#516E7F" opacity="1.000000" stroke="none" 
	d="
M591.527527,646.991089 
	C590.821411,646.313416 590.566528,645.238403 591.209473,644.886475 
	C592.026001,644.439636 592.406555,645.582458 592.958984,646.520264 
	C592.621643,646.911194 592.223938,646.920959 591.527527,646.991089 
z"/>
<path fill="#EFA5A4" opacity="1.000000" stroke="none" 
	d="
M620.298157,586.178345 
	C620.552368,585.255493 620.864136,584.359619 621.817566,584.885803 
	C622.041260,585.009277 621.793457,585.987122 621.475708,586.773560 
	C620.789368,586.992676 620.518005,586.822449 620.298157,586.178345 
z"/>
<path fill="#FBFBFB" opacity="1.000000" stroke="none" 
	d="
M620.036865,586.039917 
	C620.488403,586.086670 620.722229,586.307617 621.045410,586.780457 
	C621.059998,587.326294 620.931152,587.677429 620.564819,588.177368 
	C620.171570,588.088989 620.015808,587.851807 619.680664,587.228394 
	C619.518921,586.556213 619.642883,586.327698 620.036865,586.039917 
z"/>
<path fill="#EFA5A4" opacity="1.000000" stroke="none" 
	d="
M622.647705,583.483643 
	C622.659729,583.737671 622.559570,583.825867 622.459351,583.914062 
	C622.384644,583.803589 622.241577,583.684204 622.254333,583.584900 
	C622.267090,583.485474 622.435425,583.406006 622.647705,583.483643 
z"/>
<path fill="#FBFBFB" opacity="1.000000" stroke="none" 
	d="
M335.263977,660.232483 
	C335.502106,660.017456 335.778473,659.783264 336.054840,659.549011 
	C335.971436,659.763184 335.888031,659.977295 335.506531,660.211792 
	C335.208405,660.232178 335.302246,660.213257 335.263977,660.232483 
z"/>
<path fill="#FDFEFE" opacity="1.000000" stroke="none" 
	d="
M95.673325,240.902710 
	C101.923622,225.447235 113.522636,215.364487 126.924278,207.175919 
	C149.992645,193.080841 175.570023,185.765350 201.886673,181.075516 
	C240.123367,174.261444 278.644348,173.153809 317.320374,176.763611 
	C344.765442,179.325165 371.716217,184.137680 397.557587,194.027771 
	C412.749512,199.842072 426.678436,207.753174 438.700317,218.950928 
	C459.534393,238.356827 460.374481,266.871460 440.497589,287.185516 
	C427.405396,300.565704 411.031036,308.683807 394.236664,316.105011 
	C384.200592,320.539795 373.937164,324.433289 363.482483,327.756470 
	C360.805511,328.607391 359.851562,329.722565 359.800903,332.557739 
	C359.643341,341.381470 359.150848,350.199493 358.764709,359.018707 
	C358.695465,360.599915 358.514130,362.176239 359.144806,362.464264 
	C350.205719,354.287415 341.138977,346.243317 332.409607,337.848389 
	C329.965424,335.497864 327.858398,334.727478 324.562073,335.315033 
	C269.019775,345.215179 214.429047,340.274048 160.900757,323.485840 
	C141.791824,317.492645 123.791779,308.572235 109.303566,294.068268 
	C94.445747,279.194244 88.523308,261.893097 95.673325,240.902710 
z"/>
<path fill="#1D96CD" opacity="1.000000" stroke="none" 
	d="
M732.492676,564.542847 
	C733.735901,566.469543 735.125793,565.645081 736.614990,565.301819 
	C744.768616,563.422302 752.187927,559.905579 759.798828,554.444580 
	C759.247437,558.388550 756.442749,559.110352 754.835876,560.499023 
	C744.724243,569.237122 733.127441,574.671021 719.481323,573.888245 
	C713.246582,573.530701 707.079346,571.995361 700.467712,570.988770 
	C697.324219,567.369446 697.644897,562.990662 697.056213,558.442017 
	C699.361938,557.211609 700.820923,558.924377 702.508484,559.804016 
	C711.281982,564.377563 720.334045,567.498169 730.727905,565.205322 
	C731.405762,564.816162 731.795593,564.690369 732.492676,564.542847 
z"/>
<path fill="#0E82C5" opacity="1.000000" stroke="none" 
	d="
M730.551880,564.897461 
	C727.244568,569.041260 722.536438,566.912170 718.319641,566.493042 
	C710.770447,565.742737 704.355652,561.649963 697.412109,558.174927 
	C696.411865,555.144836 696.868591,554.747742 699.493713,556.535828 
	C708.698975,562.805969 718.848572,565.912781 730.551880,564.897461 
z"/>
<path fill="#06334C" opacity="1.000000" stroke="none" 
	d="
M770.450134,540.009766 
	C771.094910,537.861816 772.167908,535.708679 773.448853,533.138245 
	C774.369934,535.955750 772.943176,537.656799 771.927856,539.732117 
	C771.448608,539.974609 771.163452,539.989624 770.450134,540.009766 
z"/>
<path fill="#1D96CD" opacity="1.000000" stroke="none" 
	d="
M531.121826,388.706482 
	C528.453552,395.259674 522.663635,396.093445 517.118225,397.473755 
	C504.800079,400.539917 492.424103,401.694336 479.889679,398.977417 
	C478.274200,398.627258 476.517181,398.337494 475.159973,397.486572 
	C467.656891,392.782501 459.666046,392.679779 451.207642,393.956360 
	C432.873260,396.723389 414.511963,399.383575 396.957367,405.586365 
	C378.497101,412.109131 362.870331,422.552643 349.614868,437.419647 
	C337.198578,451.345398 333.291351,467.648682 330.915100,485.104492 
	C329.701233,494.021790 330.298340,502.959564 329.590057,511.873779 
	C328.071716,495.111603 327.081146,478.371826 328.819702,461.546448 
	C329.556000,454.420532 330.783752,447.475952 332.940765,440.657928 
	C338.302307,423.710754 350.467194,413.183228 366.020782,406.178131 
	C390.879150,394.982300 417.482605,390.302368 444.147797,385.937500 
	C459.666687,383.397125 475.294495,382.094940 490.957245,380.784302 
	C502.281128,379.836731 513.543579,380.317993 524.828979,380.068817 
	C528.608093,379.985413 532.404236,380.672821 536.638428,381.018860 
	C535.138000,383.485046 533.191711,385.940308 531.121826,388.706482 
z"/>
<path fill="#F26F73" opacity="1.000000" stroke="none" 
	d="
M614.988037,358.419403 
	C625.215271,361.745209 633.868408,368.222900 642.715149,374.339142 
	C645.295227,376.122864 647.563171,378.357971 650.186401,380.682129 
	C649.654297,381.748413 648.734741,382.173615 647.720276,381.767334 
	C635.014587,376.679382 623.890381,369.334595 614.988037,358.419403 
z"/>
<path fill="#FEAA05" opacity="1.000000" stroke="none" 
	d="
M610.002563,354.315002 
	C610.241089,354.266388 610.533691,354.498383 610.889954,355.015930 
	C610.654602,355.066223 610.355652,354.830933 610.002563,354.315002 
z"/>
<path fill="#F58C8F" opacity="1.000000" stroke="none" 
	d="
M640.715149,333.864502 
	C641.016479,340.034943 641.018127,346.032806 641.020264,352.496613 
	C639.397705,353.796692 638.137695,352.795471 636.897888,352.051025 
	C629.940186,347.873260 622.647278,344.311340 615.327637,340.085815 
	C614.571045,339.290710 614.046814,338.782715 613.286499,338.134827 
	C611.023987,331.473785 607.345032,325.549713 606.063477,318.362305 
	C618.203674,321.657928 629.476807,327.309113 640.715149,333.864502 
z"/>
<path fill="#FFC85E" opacity="1.000000" stroke="none" 
	d="
M615.191895,340.136902 
	C624.319397,342.545227 632.092773,348.130157 640.697876,352.841125 
	C641.127380,353.284393 641.310425,353.554321 641.775085,353.910583 
	C641.977234,357.740295 641.974365,361.431763 641.946411,365.588684 
	C630.424988,360.254425 622.131531,351.119904 615.191895,340.136902 
z"/>
<path fill="#76CFEE" opacity="1.000000" stroke="none" 
	d="
M544.924438,326.064026 
	C544.731262,325.921692 544.648376,325.672424 544.565491,325.423157 
	C544.713745,325.431152 544.862000,325.439178 545.130127,325.592529 
	C545.250061,325.737915 545.034729,325.957092 544.924438,326.064026 
z"/>
<path fill="#080D10" opacity="1.000000" stroke="none" 
	d="
M593.391357,503.501923 
	C607.457764,510.997437 615.560791,525.400940 613.727112,539.251770 
	C611.565613,555.579773 600.970520,566.978088 584.519226,570.507080 
	C578.708130,571.753723 572.927002,571.229553 567.319397,569.322144 
	C550.754333,563.687500 538.448914,547.124817 537.829956,529.743958 
	C537.790527,528.636047 537.130310,526.963196 538.590820,526.739197 
	C540.746338,526.408630 539.908081,528.535461 540.190918,529.620117 
	C541.016479,532.786865 540.780640,536.213501 542.956299,540.149536 
	C542.416382,524.155640 547.960022,512.142944 561.375427,504.633728 
	C571.618103,498.900391 582.292419,498.763855 593.391357,503.501923 
z"/>
<path fill="#1C95CD" opacity="1.000000" stroke="none" 
	d="
M786.994263,434.998901 
	C800.109802,431.423492 812.903259,430.059540 826.954346,433.274689 
	C823.051453,434.804108 820.391602,432.881836 817.580994,432.895569 
	C805.500610,432.954651 793.764099,434.932220 782.599243,439.366577 
	C771.165649,443.907715 760.135681,449.333435 749.927185,456.372406 
	C741.908447,461.901520 737.386841,468.925995 737.956909,478.918274 
	C738.209045,483.337494 737.661011,487.795929 739.106750,492.899597 
	C732.937805,485.211578 732.759094,470.655029 736.762146,464.610413 
	C742.166626,456.449463 749.590698,450.845428 757.830872,446.114136 
	C766.825562,440.949646 776.521851,437.495483 786.994263,434.998901 
z"/>
<path fill="#1C95CD" opacity="1.000000" stroke="none" 
	d="
M604.649780,564.032227 
	C603.585327,568.465759 599.978455,571.127808 596.244080,573.054199 
	C584.796570,578.959595 572.943054,580.559265 560.953186,574.442444 
	C557.208801,572.532227 554.587402,569.355530 551.454468,565.082031 
	C556.138306,566.375183 558.499695,569.595520 562.089844,570.642090 
	C576.481750,574.837524 590.201050,575.001770 602.567749,564.991394 
	C603.067505,564.586853 603.717224,564.367554 604.649780,564.032227 
z"/>
<path fill="#020D13" opacity="1.000000" stroke="none" 
	d="
M581.715210,478.705963 
	C590.071289,470.650696 602.660461,472.409546 608.468811,482.497284 
	C609.941772,485.055573 611.047119,487.877411 611.956116,490.695953 
	C613.244690,494.691498 614.688965,498.511597 619.043518,501.608307 
	C614.655334,501.386292 612.952576,498.978638 611.449402,496.514984 
	C609.817322,493.840118 608.446716,491.005707 606.671997,488.071655 
	C601.479919,480.183685 594.575500,477.149353 585.561646,478.923309 
	C584.433960,479.145203 583.237610,479.034027 581.715210,478.705963 
z"/>
<path fill="#1C95CD" opacity="1.000000" stroke="none" 
	d="
M661.018677,454.031250 
	C666.307556,465.012238 669.269897,476.338104 672.155273,487.841309 
	C670.636414,488.125153 670.507629,487.076172 670.358337,486.513733 
	C666.057373,470.314819 658.508118,455.613098 649.719299,441.474274 
	C648.996460,440.311432 647.251099,439.195496 649.032043,437.670441 
	C650.678040,436.260956 652.115479,436.035034 653.280090,438.507568 
	C655.689575,443.623291 658.323792,448.633148 661.018677,454.031250 
z"/>
<path fill="#1787C8" opacity="1.000000" stroke="none" 
	d="
M581.327393,478.837982 
	C585.746216,477.698212 590.078186,476.796326 594.666992,477.593597 
	C600.480225,478.603546 604.361694,481.597626 606.318481,487.538574 
	C602.142151,485.836060 599.597351,481.199615 594.321777,480.503510 
	C591.665527,480.152985 589.039795,480.277313 586.423889,479.971436 
	C584.711304,479.771149 582.754150,480.858490 581.327393,478.837982 
z"/>
<path fill="#1C95CD" opacity="1.000000" stroke="none" 
	d="
M604.998779,563.998779 
	C605.120300,563.564209 605.243042,563.130920 605.365784,562.697571 
	C606.069275,563.017883 605.699280,563.389160 605.209229,563.879395 
	C605.002441,564.002441 605.000000,564.000000 604.998779,563.998779 
z"/>
<path fill="#070F12" opacity="1.000000" stroke="none" 
	d="
M703.452148,576.484375 
	C703.427551,576.474915 703.476746,576.493896 703.452148,576.484375 
z"/>
<path fill="#1C96CE" opacity="1.000000" stroke="none" 
	d="
M650.398682,716.716675 
	C650.563232,716.846497 650.587646,717.071472 650.612061,717.296448 
	C650.494263,717.134888 650.376465,716.973328 650.398682,716.716675 
z"/>
<path fill="#1787C8" opacity="1.000000" stroke="none" 
	d="
M313.790527,233.010132 
	C315.614380,233.422089 317.963623,232.117081 317.922485,234.968582 
	C317.896851,236.744049 318.058105,238.964401 315.326813,238.906082 
	C312.293091,238.841309 312.525299,241.244080 312.079895,243.014481 
	C309.688049,252.521988 307.321106,262.036926 305.091797,271.583435 
	C304.481567,274.196625 304.006012,276.140320 300.519775,276.136505 
	C297.195587,276.132843 297.357666,273.953156 296.803070,271.947632 
	C295.215668,266.207092 293.597015,260.475159 291.677521,253.622055 
	C289.600006,260.713440 287.656830,266.615265 286.198425,272.634552 
	C285.475464,275.618408 283.675964,275.568695 281.406372,275.633667 
	C278.951385,275.704010 278.400848,274.313324 277.994904,272.287659 
	C276.035461,262.510681 273.994354,252.749557 271.895935,243.001404 
	C271.548950,241.389343 271.799622,238.891266 268.942383,239.368759 
	C265.580383,239.930618 266.177277,237.709381 266.011261,235.729950 
	C265.785065,233.032150 267.233063,232.775635 269.361481,232.897247 
	C272.851196,233.096634 276.352722,233.082535 279.845093,233.246643 
	C281.242432,233.312317 283.133179,232.931259 283.053558,235.283096 
	C283.001404,236.824631 283.555145,238.883286 280.917389,238.934738 
	C278.838135,238.975327 279.053131,240.251587 279.293335,241.672638 
	C280.367310,248.026581 281.405670,254.386551 283.537384,261.003265 
	C286.158325,252.847534 288.779297,244.691818 291.820221,235.229187 
	C294.857117,244.787140 297.541138,253.234451 300.695312,263.161591 
	C302.271729,254.978500 303.574890,248.254288 304.856689,241.525986 
	C305.107178,240.211212 304.837372,239.252197 303.196198,239.170471 
	C299.336517,238.978271 301.152985,235.979156 301.110565,234.285965 
	C301.038116,231.396103 303.448334,232.784149 304.845703,232.765305 
	C307.673126,232.727127 310.503510,232.907959 313.790527,233.010132 
z"/>
<path fill="#1987C9" opacity="1.000000" stroke="none" 
	d="
M151.867615,269.866913 
	C153.865463,270.405029 156.523590,268.699738 156.351654,272.470612 
	C156.208572,275.608826 154.224625,275.268433 152.283447,275.362518 
	C148.958023,275.523743 145.630356,275.638367 142.304398,275.789429 
	C140.548050,275.869202 138.911652,275.934784 139.017471,273.372101 
	C139.094788,271.499939 138.767883,269.492828 141.699539,269.906006 
	C143.792938,270.201019 144.247162,269.038574 144.174545,267.253448 
	C144.100174,265.425201 143.970093,263.567078 144.202057,261.765503 
	C144.625488,258.476776 143.130859,257.636719 140.202347,258.127930 
	C139.059067,258.319702 137.878693,258.280914 136.718063,258.380219 
	C128.843918,259.053619 128.919373,259.055267 129.047256,267.087311 
	C129.081329,269.226746 129.373138,270.692291 131.878418,270.659241 
	C133.999771,270.631256 134.128662,271.984406 134.123383,273.655945 
	C134.116379,275.865601 132.723831,275.921051 131.129807,275.936340 
	C127.467484,275.971436 123.803986,276.004456 120.144180,276.131287 
	C118.255257,276.196747 116.930077,275.958038 116.951210,273.551483 
	C116.969238,271.499573 117.017670,269.834015 119.785461,270.229095 
	C121.924667,270.534393 122.209930,269.192566 122.187706,267.484039 
	C122.083778,259.493683 122.000702,251.502792 121.971916,243.511871 
	C121.965828,241.823868 121.734818,240.713745 119.644356,240.546616 
	C116.459732,240.292023 117.611443,237.626892 117.517426,235.881439 
	C117.385811,233.438156 119.393021,234.049149 120.757660,234.118164 
	C124.580116,234.311508 128.395966,234.633392 132.215149,234.894089 
	C133.557419,234.985733 135.015106,234.887955 134.768188,236.956390 
	C134.590500,238.444977 134.470520,239.512131 132.500290,240.183060 
	C127.018448,242.049881 130.478699,246.873016 129.905792,250.275757 
	C129.427719,253.115326 132.509933,251.705475 134.053192,252.059174 
	C134.526581,252.167679 135.048004,252.066528 135.547424,252.061707 
	C144.248428,251.977753 144.184692,251.977646 144.198181,243.436935 
	C144.202484,240.710556 144.302094,238.464600 140.424835,238.941391 
	C137.788391,239.265594 138.411362,236.934998 138.196182,235.412079 
	C137.890610,233.249390 139.171249,232.937271 140.905975,233.026688 
	C145.560287,233.266571 150.216354,233.478897 154.873505,233.654755 
	C156.624573,233.720886 157.707764,234.218048 157.550339,236.291931 
	C157.410309,238.136627 156.682693,239.011917 154.759979,238.885223 
	C153.249084,238.785675 151.709549,238.716141 151.641632,240.986389 
	C151.354462,250.584900 150.313751,260.176331 151.867615,269.866913 
z"/>
<path fill="#1887C8" opacity="1.000000" stroke="none" 
	d="
M189.844879,245.071304 
	C189.852280,242.751038 189.728607,240.907074 189.895477,239.089813 
	C190.118088,236.665909 189.230270,235.666809 186.806793,236.192200 
	C184.783371,236.630875 183.733505,236.164001 183.743744,233.754654 
	C183.752945,231.587448 184.558060,231.067795 186.611237,230.779037 
	C197.188751,229.291336 197.241119,229.216537 196.979492,239.617737 
	C196.749207,248.773483 196.603760,257.942841 195.951187,267.072601 
	C195.494110,273.467651 200.132126,270.419586 202.644653,271.088043 
	C205.998749,271.980377 206.368301,269.812897 206.353699,267.095795 
	C206.304443,257.936127 206.377594,248.774887 206.510941,239.615799 
	C206.545502,237.241425 206.170120,235.650650 203.272995,236.188538 
	C201.070724,236.597412 200.344254,235.551041 200.332413,233.417633 
	C200.320999,231.359833 201.387863,231.089371 203.093643,230.817841 
	C214.157394,229.056580 214.163315,229.013687 213.807281,240.190460 
	C213.526276,249.011978 213.255920,257.834351 212.879395,266.652008 
	C212.762299,269.393921 212.671097,271.782867 216.580444,271.051483 
	C218.603302,270.673004 219.068481,271.777222 219.133698,273.626770 
	C219.207825,275.728271 218.124329,275.912262 216.438782,276.221008 
	C206.472153,278.046539 196.386139,275.750977 186.418274,277.210449 
	C184.245117,277.528625 184.079254,275.964478 183.975250,274.356384 
	C183.869156,272.716278 183.946442,271.123566 186.117340,271.324707 
	C190.037933,271.687927 189.796219,269.168579 189.783112,266.544891 
	C189.748199,259.550049 189.816132,252.554672 189.844879,245.071304 
z"/>
<path fill="#1887C8" opacity="1.000000" stroke="none" 
	d="
M417.057983,270.791321 
	C419.365601,273.154022 422.182892,272.026642 424.701508,272.594543 
	C426.080780,272.905548 427.264893,272.980560 427.235748,274.880066 
	C427.210419,276.531830 426.556763,277.345825 424.944336,277.460052 
	C420.961670,277.742065 416.983276,278.119629 412.995911,278.287872 
	C409.770294,278.423981 411.962769,275.309296 410.689484,274.221344 
	C401.820709,278.425537 397.060944,277.968719 392.567261,272.462402 
	C388.559082,267.551056 388.429443,258.964050 392.285217,253.786865 
	C396.316620,248.373932 402.287354,247.336121 411.372955,250.866638 
	C411.372955,248.220032 411.217377,245.801895 411.406982,243.411148 
	C411.749237,239.095871 411.883698,235.160202 405.640350,235.955002 
	C403.899200,236.176636 403.392609,235.002380 403.361847,233.442902 
	C403.330688,231.860107 403.802917,230.874146 405.591553,230.922607 
	C406.587585,230.949615 407.587524,230.869598 408.584564,230.816727 
	C419.431305,230.241547 419.313416,230.232315 418.579437,240.927414 
	C417.907501,250.718811 417.527649,260.530273 417.057983,270.791321 
z"/>
<path fill="#1987C9" opacity="1.000000" stroke="none" 
	d="
M174.145065,274.561340 
	C165.337723,275.447845 160.402679,273.060852 157.609680,266.902466 
	C154.519989,260.089874 156.034836,250.718597 160.995468,245.956985 
	C164.622925,242.475098 170.752197,241.554016 175.427353,243.788239 
	C180.240341,246.088348 183.617630,252.248688 183.162750,257.326752 
	C182.943939,259.769653 181.633652,260.382874 179.583984,260.487701 
	C175.757904,260.683411 171.919067,260.775513 168.114655,261.182709 
	C166.395920,261.366608 163.399002,260.251068 163.388916,263.148926 
	C163.379196,265.950775 164.687012,268.785431 168.147659,269.309509 
	C172.431046,269.958160 175.893555,268.112671 179.140350,265.544006 
	C180.238480,264.675232 181.193878,262.478088 183.165405,264.599213 
	C185.033478,266.609039 183.553970,267.892273 182.321259,269.242920 
	C180.157928,271.613220 177.705063,273.566895 174.145065,274.561340 
z"/>
<path fill="#1787C8" opacity="1.000000" stroke="none" 
	d="
M220.484024,251.707123 
	C226.356461,243.380051 233.415207,241.598587 240.712723,246.331741 
	C247.357178,250.641281 249.237595,259.963043 244.897324,267.075897 
	C240.862656,273.687927 232.206757,275.865906 225.261200,272.016724 
	C218.409134,268.219360 216.686722,261.297943 220.484024,251.707123 
z"/>
<path fill="#1988C9" opacity="1.000000" stroke="none" 
	d="
M349.139709,253.206879 
	C349.506378,249.389572 347.089691,250.032471 345.203552,250.034317 
	C343.435730,250.036041 341.874725,250.101868 342.081299,247.511429 
	C342.243103,245.482803 342.458405,243.899658 345.079041,244.002365 
	C347.067352,244.080322 349.066925,243.909531 351.060059,243.818314 
	C355.158386,243.630783 355.157990,243.622208 356.070251,247.624481 
	C356.876038,247.884903 357.187775,247.209106 357.620850,246.791534 
	C360.608795,243.910370 364.147064,242.210373 367.927124,244.577805 
	C371.666718,246.919922 371.571808,251.051468 370.899719,254.934998 
	C370.556549,256.917938 369.700928,259.081696 367.188873,258.853333 
	C364.848206,258.640564 364.024902,256.660706 363.904968,254.506332 
	C363.816010,252.908401 363.887451,251.301514 363.887451,249.217010 
	C358.812073,251.468842 355.878326,254.612915 355.820862,259.906525 
	C355.795593,262.233826 355.951965,264.566467 355.847748,266.888672 
	C355.748779,269.094696 356.270782,270.434509 358.849091,270.057617 
	C360.766846,269.777283 361.946228,270.225800 361.929321,272.643738 
	C361.913239,274.942261 360.703613,275.464355 358.875549,275.641052 
	C354.740875,276.040588 350.599945,276.389008 346.475891,276.878784 
	C344.585785,277.103271 343.678680,276.518738 343.643463,274.557648 
	C343.614136,272.924927 342.988434,270.864258 345.679596,271.060669 
	C349.227936,271.319672 349.226746,269.193817 349.166718,266.652710 
	C349.064606,262.331818 349.140259,258.006714 349.139709,253.206879 
z"/>
<path fill="#1686C8" opacity="1.000000" stroke="none" 
	d="
M332.711975,273.073273 
	C325.964935,274.994751 320.421143,273.594940 316.271729,268.401550 
	C312.288605,263.416321 312.839294,257.806641 315.381531,252.421539 
	C317.900421,247.085892 322.114044,243.852707 328.285004,243.881149 
	C334.040009,243.907684 339.522430,247.937973 341.548401,253.503693 
	C343.678009,259.354065 341.945648,266.316864 337.249268,270.270630 
	C335.996307,271.325439 334.483521,272.071655 332.711975,273.073273 
z"/>
<path fill="#1485C7" opacity="1.000000" stroke="none" 
	d="
M383.050720,269.660767 
	C384.103516,271.872894 385.778259,270.987640 387.126709,270.982147 
	C389.038269,270.974365 389.222473,272.033356 389.344147,273.488617 
	C389.473450,275.035522 389.239502,276.016602 387.365906,276.132385 
	C382.721985,276.419434 378.085602,276.833160 373.448303,277.221344 
	C371.275635,277.403168 371.082916,275.987762 370.985443,274.367828 
	C370.887360,272.739014 370.941833,271.132996 373.118256,271.336823 
	C377.005188,271.700775 376.813507,269.228058 376.804871,266.586121 
	C376.776215,257.772614 376.786804,248.957947 376.914825,240.145676 
	C376.953217,237.502396 376.863037,235.422287 373.303925,236.173157 
	C371.217743,236.613266 370.832672,235.365540 370.790955,233.590866 
	C370.747192,231.729721 371.422333,231.132324 373.305939,230.817657 
	C384.195892,228.998322 384.245300,228.933167 383.978485,239.785126 
	C383.737335,249.591431 383.344360,259.394012 383.050720,269.660767 
z"/>
<path fill="#020507" opacity="1.000000" stroke="none" 
	d="
M509.470886,384.431610 
	C513.221008,384.855957 516.503601,385.317810 519.610596,386.585114 
	C520.887878,387.106140 522.108704,387.819427 522.155579,389.338501 
	C522.203430,390.890533 520.937073,391.543793 519.704285,392.131561 
	C514.325867,394.695984 508.466858,394.879974 502.714111,395.485321 
	C493.909546,396.411682 485.141632,396.096954 476.494324,394.036530 
	C474.569946,393.577972 472.095856,393.086151 471.930511,390.842896 
	C471.731476,388.142548 474.524536,387.611847 476.463928,387.086823 
	C487.135956,384.197815 498.018463,383.457306 509.470886,384.431610 
z"/>
<path fill="#FCFCFC" opacity="1.000000" stroke="none" 
	d="
M576.306885,567.677307 
	C556.868408,566.253967 545.404358,550.066223 545.885071,534.627075 
	C546.369629,519.062927 558.742065,505.469025 574.530151,504.031799 
	C591.165100,502.517456 606.042542,513.378906 609.006653,529.201782 
	C612.902771,549.999817 598.761780,566.873596 576.306885,567.677307 
z"/>
<path fill="#06334C" opacity="1.000000" stroke="none" 
	d="
M543.700439,541.702271 
	C543.853394,542.384705 544.257751,543.308716 543.307800,543.027283 
	C542.816467,542.881775 542.891357,541.960815 543.700439,541.702271 
z"/>
<path fill="#F8FBFD" opacity="1.000000" stroke="none" 
	d="
M397.988220,258.319214 
	C401.031860,254.617905 404.421692,253.417313 408.260437,256.010651 
	C411.549927,258.232910 411.941864,263.511505 409.409546,267.273987 
	C407.131104,270.659332 404.077759,271.660492 400.339752,269.968750 
	C396.666138,268.306122 395.808807,264.306183 397.988220,258.319214 
z"/>
<path fill="#F0F7FC" opacity="1.000000" stroke="none" 
	d="
M175.283691,255.616043 
	C171.144440,256.168915 167.353012,256.480927 163.471161,256.800385 
	C164.819412,251.436630 168.069672,248.100052 171.573303,248.723038 
	C175.194977,249.367004 176.412292,251.853683 175.283691,255.616043 
z"/>
<path fill="#F8FBFD" opacity="1.000000" stroke="none" 
	d="
M233.115051,251.057434 
	C239.635010,252.568176 242.286072,258.001984 239.438339,263.468567 
	C237.866531,266.485840 235.305984,268.227020 231.776093,267.910736 
	C228.554871,267.622162 225.988205,266.082214 225.139206,262.824829 
	C224.087540,258.789886 225.188385,255.212326 228.619980,252.697250 
	C229.766357,251.857086 231.342285,251.602982 233.115051,251.057434 
z"/>
<path fill="#F8FBFD" opacity="1.000000" stroke="none" 
	d="
M330.147583,267.471252 
	C322.155945,268.298065 317.889435,263.367706 320.553650,256.875916 
	C322.081177,253.153839 324.877167,250.953339 328.999054,251.104172 
	C332.385406,251.228088 334.481354,253.205353 335.244141,256.520020 
	C336.340973,261.286133 335.063690,265.019684 330.147583,267.471252 
z"/>
<path fill="#090909" opacity="1.000000" stroke="none" 
	d="
M569.203491,543.580444 
	C568.062073,535.933838 569.870056,531.499634 575.000305,528.713135 
	C580.010925,525.991699 585.698120,526.673462 589.801331,530.487427 
	C595.155762,535.464355 595.281311,543.178101 590.089844,548.213318 
	C584.917908,553.229553 576.609558,553.021667 571.774902,547.667664 
	C570.789307,546.576172 570.132141,545.187988 569.203491,543.580444 
z"/>
<path fill="#F0F7FC" opacity="1.000000" stroke="none" 
	d="
M587.918335,534.965881 
	C587.771240,535.520935 587.697327,535.672424 587.592163,535.797607 
	C585.808411,537.920898 583.824829,538.386658 581.786377,536.242615 
	C580.503113,534.892883 580.841492,533.262573 582.279480,532.432861 
	C584.816284,530.968994 587.063538,531.198669 587.918335,534.965881 
z"/>
</svg>